<svg width="25" height="25" viewBox="0 0 25 25" fill="none" xmlns="http://www.w3.org/2000/svg">
<g clip-path="url(#clip0_403_438)">
<path d="M21.8182 0H3.18182C2.33795 0 1.52864 0.335226 0.931933 0.931933C0.335226 1.52864 0 2.33795 0 3.18182V21.8182C0 22.6621 0.335226 23.4714 0.931933 24.0681C1.52864 24.6648 2.33795 25 3.18182 25H12.3108V14.598H10.2304V10.4372H12.2936V8.55682C12.2936 6.855 13.1043 4.19625 16.6719 4.19625L19.8859 4.20915V7.77398H17.5519C17.1724 7.77398 16.6324 7.96295 16.6324 8.77352V10.4374H19.9389L19.5594 14.5982H16.4716V25H21.8182C22.236 25 22.6498 24.9177 23.0358 24.7578C23.4218 24.5979 23.7726 24.3635 24.0681 24.0681C24.3635 23.7726 24.5979 23.4218 24.7578 23.0358C24.9177 22.6498 25 22.236 25 21.8182V3.18182C25 2.76398 24.9177 2.35022 24.7578 1.96419C24.5979 1.57815 24.3635 1.22739 24.0681 0.931933C23.7726 0.636474 23.4218 0.402103 23.0358 0.242201C22.6498 0.0823001 22.236 0 21.8182 0Z" fill="#F5F5F5"/>
</g>
<defs>
<clipPath id="clip0_403_438">
<rect width="25" height="25" fill="white"/>
</clipPath>
</defs>
</svg>
