<svg width="56" height="56" viewBox="0 0 56 56" fill="currentColor" xmlns="http://www.w3.org/2000/svg">
<path d="M19.0832 8.10313C19.2444 8.38226 19.5379 8.54074 19.8415 8.54074C19.9681 8.54074 20.0966 8.51318 20.2177 8.45532C22.2535 7.48385 24.4405 6.90351 26.7178 6.73037C27.174 6.6957 27.5265 6.3154 27.5265 5.85788V1.7502C27.5265 1.50848 27.4264 1.27748 27.2502 1.1121C27.074 0.946728 26.8374 0.861415 26.5958 0.877056C23.3791 1.08246 20.2874 1.91043 17.4066 3.33799C17.19 3.44529 17.0275 3.63746 16.9575 3.86879C16.8875 4.10012 16.9165 4.35015 17.0372 4.55949L19.0832 8.10313ZM25.7765 2.70198V5.06284C23.8437 5.28673 21.975 5.78253 20.2024 6.5417L19.0286 4.50852C21.1737 3.55357 23.4361 2.94785 25.7765 2.70198ZM6.39788 35.854C6.50496 36.0709 6.69713 36.2337 6.92868 36.3039C7.01169 36.3291 7.09723 36.3416 7.18232 36.3416C7.33446 36.3416 7.48551 36.3019 7.61982 36.2243L11.1802 34.1688C11.5756 33.9406 11.729 33.4466 11.5325 33.0344C10.5585 30.9919 9.97532 28.8069 9.79879 26.5403C9.76324 26.0847 9.38327 25.7332 8.92641 25.7332H4.81752C4.5758 25.7332 4.34469 25.8333 4.17932 26.0096C4.01394 26.1859 3.92885 26.4229 3.94438 26.6642C4.15088 29.884 4.97644 32.9758 6.39788 35.854ZM8.13301 27.4831C8.35974 29.408 8.85794 31.2741 9.61887 33.0495L7.57016 34.2323C6.61937 32.0886 6.01562 29.8257 5.76952 27.4831H8.13301ZM4.81763 24.4627H8.9426C9.39651 24.4627 9.77516 24.1155 9.81432 23.6633C10.0113 21.3911 10.5991 19.2082 11.5614 17.1752C11.7563 16.7634 11.6025 16.2709 11.208 16.0431L7.62627 13.9753C7.41693 13.8544 7.16679 13.8254 6.93546 13.8955C6.70402 13.9655 6.51185 14.1281 6.40455 14.3447C4.97863 17.2245 4.15099 20.3154 3.94438 23.5316C3.92885 23.7729 4.01394 24.0099 4.17932 24.1862C4.3448 24.3626 4.5758 24.4627 4.81763 24.4627ZM7.57574 15.9668L9.6484 17.1634C8.89612 18.9289 8.39562 20.7891 8.15543 22.7127H5.76963C6.01627 20.3729 6.62177 18.1111 7.57574 15.9668ZM54.4663 27.3812C54.2393 26.9133 53.7749 26.6227 53.2541 26.6226H52.3923C52.4238 26.115 52.4396 25.6051 52.4396 25.0979C52.4396 18.8866 50.0951 12.9773 45.8378 8.4586C41.5993 3.95968 35.8779 1.26698 29.7274 0.87629C29.4865 0.861197 29.2493 0.946072 29.0732 1.11145C28.897 1.27682 28.797 1.50782 28.797 1.74943V5.85821C28.797 6.3154 29.1489 6.69548 29.6047 6.73059C39.1289 7.46537 46.5896 15.5332 46.5896 25.0978C46.5896 25.6053 46.5687 26.1156 46.527 26.6224H45.9675C45.4469 26.6224 44.9824 26.913 44.7554 27.3809C44.5283 27.8487 44.5873 28.3934 44.9093 28.8022L48.5529 33.4302C48.81 33.7566 49.1957 33.9437 49.6112 33.9436C50.0266 33.9436 50.4121 33.7564 50.6691 33.43L54.3124 28.8022C54.6343 28.3936 54.6934 27.849 54.4663 27.3812ZM49.6107 31.9455L46.7979 28.3727H47.3162C47.7577 28.3727 48.13 28.0438 48.1845 27.6057C48.2873 26.7783 48.3395 25.9345 48.3395 25.098C48.3395 19.984 46.4226 15.1063 42.9417 11.3636C39.6647 7.83998 35.2889 5.6224 30.5469 5.0647V2.70121C41.9151 3.89635 50.6897 13.5588 50.6897 25.098C50.6897 25.8686 50.6503 26.6461 50.5726 27.4089C50.5475 27.6551 50.6278 27.9006 50.7937 28.0842C50.9597 28.2678 51.1956 28.3727 51.4431 28.3727H52.4238L49.6107 31.9455ZM8.26327 12.8762L11.8326 14.9369C11.9701 15.0163 12.1206 15.0542 12.2695 15.0542C12.5503 15.0542 12.8251 14.9189 12.9935 14.6713C14.2739 12.7893 15.8657 11.1838 17.7246 9.89929C18.0996 9.64018 18.2129 9.13662 17.985 8.74188L15.9382 5.19693C15.8173 4.98726 15.6147 4.8372 15.379 4.78218C15.1431 4.72738 14.8952 4.77245 14.6941 4.90698C12.0216 6.69406 9.7604 8.9567 7.97299 11.6322C7.83857 11.8335 7.79351 12.0813 7.84841 12.317C7.90365 12.5528 8.05371 12.7552 8.26327 12.8762ZM14.8997 6.89782L16.0743 8.93231C14.5319 10.0922 13.172 11.4638 12.0179 13.0232L9.96373 11.8372C11.3476 9.93779 13.0025 8.28185 14.8997 6.89782ZM40.3584 36.5439L31.9223 41.4575C31.6014 41.6443 31.2761 41.7884 30.9411 41.8907C31.0438 41.684 31.128 41.4604 31.1922 41.221C31.6409 39.5464 30.6476 37.7988 28.9311 37.2424C28.8936 37.2302 28.8553 37.2206 28.8166 37.2136C26.4025 36.7782 24.015 35.915 22.0966 35.2215C21.4276 34.9796 20.7958 34.7511 20.2573 34.5766C18.0503 33.8605 16.0669 34.7401 14.4177 35.6951L8.2519 39.2649L7.72307 38.3304C7.44526 37.8396 6.99157 37.4859 6.44568 37.3345C5.8999 37.1834 5.32885 37.253 4.83787 37.5307L2.47088 38.8703C1.45501 39.4453 1.09626 40.7395 1.67113 41.7555L8.6299 54.0511C8.90771 54.5421 9.3614 54.8958 9.90729 55.0471C10.0961 55.0994 10.2878 55.1253 10.4782 55.1253C10.8384 55.1253 11.194 55.0326 11.5151 54.8509L13.8821 53.5113C14.373 53.2333 14.7267 52.7798 14.8781 52.2339C15.0293 51.688 14.9596 51.1169 14.6818 50.6259L14.0261 49.4673L15.3029 48.7301L26.0571 51.6117C26.6643 51.7745 27.2686 51.8554 27.8628 51.8554C29.0651 51.8554 30.2265 51.5245 31.2884 50.8707L46.5978 41.4438C48.0491 40.5503 48.5119 38.3024 47.5687 36.7279C47.1123 35.9655 45.2429 33.6994 40.3584 36.5439ZM13.1917 51.7665C13.1764 51.8217 13.1337 51.924 13.0202 51.9883L10.6532 53.3279C10.5398 53.3924 10.43 53.3762 10.3748 53.3608C10.3195 53.3454 10.2173 53.3028 10.1529 53.1893L3.19429 40.8937C3.09629 40.7205 3.15973 40.4914 3.33298 40.3934L5.70007 39.0537C5.76318 39.0181 5.82498 39.0071 5.87704 39.0071C5.9186 39.0071 5.95393 39.014 5.97854 39.0209C6.03377 39.0362 6.13604 39.0789 6.20024 39.1923L13.159 51.4879C13.2231 51.6016 13.207 51.7112 13.1917 51.7665ZM45.6804 39.9538L30.371 49.3806C29.1877 50.1089 27.8888 50.2911 26.5101 49.9215L15.4057 46.946C15.1814 46.8861 14.9427 46.9175 14.7418 47.0334L13.1641 47.9442L9.11388 40.7878L15.2944 37.2092C16.676 36.4094 18.1679 35.7383 19.7174 36.2409C20.2281 36.4067 20.8182 36.6199 21.5015 36.867C23.4652 37.577 25.905 38.4591 28.4416 38.9239C29.2542 39.2126 29.7085 39.9963 29.5018 40.7679C29.2294 41.7842 28.3747 41.9106 27.6925 41.833C26.4575 41.5787 25.2814 41.243 24.0371 40.8877C23.4441 40.7184 22.8309 40.5433 22.2002 40.3742C21.7334 40.2494 21.2536 40.5263 21.1285 40.993C21.0035 41.4598 21.2805 41.9395 21.7472 42.0646C22.3641 42.2299 22.9704 42.403 23.5565 42.5705C24.8465 42.9389 27.4084 43.561 27.4142 43.5619L28.4635 43.7326C30.0625 43.9882 31.4819 43.7388 32.8029 42.9696L41.239 38.056C43.5997 36.6811 45.4047 36.5205 46.0674 37.6271C46.5202 38.3828 46.3249 39.557 45.6804 39.9538ZM6.32438 41.3184C6.39187 41.7801 6.07227 42.2093 5.61049 42.2768C5.14871 42.3443 4.71952 42.0247 4.65204 41.5628C4.58455 41.101 4.90415 40.6718 5.36593 40.6044C5.82771 40.537 6.25679 40.8566 6.32438 41.3184ZM35.6026 16.8987C35.6026 13.4084 32.7629 10.5687 29.2726 10.5687C25.7822 10.5687 22.9425 13.4084 22.9425 16.8987C22.9425 19.0276 23.9999 20.9129 25.6161 22.061C21.3674 23.4551 18.1751 27.2201 17.6754 31.8889C17.649 32.1358 17.7287 32.3822 17.8946 32.5668C18.0605 32.7514 18.2971 32.857 18.5454 32.857H39.9994C40.2477 32.857 40.4843 32.7516 40.6502 32.5668C40.8161 32.3822 40.8959 32.1358 40.8694 31.8888C40.3696 27.2201 37.1774 23.4552 32.9289 22.061C34.5451 20.913 35.6026 19.0276 35.6026 16.8987ZM38.9778 31.107H19.5671C20.5101 26.5536 24.5221 23.2298 29.2703 23.2287C29.271 23.2287 29.2718 23.2288 29.2726 23.2288H29.2748C34.0228 23.2299 38.0348 26.5536 38.9778 31.107ZM29.2725 21.4787C29.2715 21.4787 29.2706 21.4787 29.2696 21.4787C26.7456 21.4771 24.6925 19.4232 24.6925 16.8987C24.6925 14.3733 26.7471 12.3187 29.2726 12.3187C31.798 12.3187 33.8526 14.3733 33.8526 16.8987C33.8526 19.4232 31.7996 21.4772 29.2754 21.4787C29.2744 21.4788 29.2734 21.4787 29.2725 21.4787Z" fill="black"/>
</svg>
