<svg width="26" height="25" viewBox="0 0 26 25" fill="none" xmlns="http://www.w3.org/2000/svg">
<g clip-path="url(#clip0_403_447)">
<path d="M14.7924 12.5C14.7924 13.7135 13.8022 14.6973 12.5808 14.6973C11.3594 14.6973 10.3691 13.7135 10.3691 12.5C10.3691 11.2865 11.3594 10.3027 12.5808 10.3027C13.8022 10.3027 14.7924 11.2865 14.7924 12.5Z" fill="#F5F5F5"/>
<path d="M16.3177 5.85938H8.84727C7.22119 5.85938 5.89844 7.17354 5.89844 8.78906V16.2109C5.89844 17.8265 7.22119 19.1406 8.84727 19.1406H16.3177C17.9437 19.1406 19.2665 17.8265 19.2665 16.2109V8.78906C19.2665 7.17354 17.9437 5.85938 16.3177 5.85938ZM12.5825 16.1621C10.55 16.1621 8.89642 14.5193 8.89642 12.5C8.89642 10.4807 10.55 8.83789 12.5825 8.83789C14.615 8.83789 16.2685 10.4807 16.2685 12.5C16.2685 14.5193 14.615 16.1621 12.5825 16.1621ZM16.8091 9.0332C16.4019 9.0332 16.0719 8.70533 16.0719 8.30078C16.0719 7.89623 16.4019 7.56836 16.8091 7.56836C17.2163 7.56836 17.5463 7.89623 17.5463 8.30078C17.5463 8.70533 17.2163 9.0332 16.8091 9.0332Z" fill="#F5F5F5"/>
<path d="M18.5285 0H6.63488C2.97648 0 0 2.95715 0 6.5918V18.4082C0 22.0428 2.97648 25 6.63488 25H18.5285C22.1869 25 25.1634 22.0428 25.1634 18.4082V6.5918C25.1634 2.95715 22.1869 0 18.5285 0ZM20.7401 16.2109C20.7401 18.634 18.7558 20.6055 16.3169 20.6055H8.84651C6.40757 20.6055 4.42325 18.634 4.42325 16.2109V8.78906C4.42325 6.36597 6.40757 4.39453 8.84651 4.39453H16.3169C18.7558 4.39453 20.7401 6.36597 20.7401 8.78906V16.2109Z" fill="#F5F5F5"/>
</g>
<defs>
<clipPath id="clip0_403_447">
<rect width="25.1634" height="25" fill="white"/>
</clipPath>
</defs>
</svg>
