<svg width="25" height="25" viewBox="0 0 25 25" fill="none" xmlns="http://www.w3.org/2000/svg">
<g clip-path="url(#clip0_403_453)">
<path d="M21.5909 0H3.40909C2.50494 0 1.63783 0.359171 0.9985 0.9985C0.359171 1.63783 0 2.50494 0 3.40909L0 21.5909C0 22.4951 0.359171 23.3622 0.9985 24.0015C1.63783 24.6408 2.50494 25 3.40909 25H21.5909C22.4951 25 23.3622 24.6408 24.0015 24.0015C24.6408 23.3622 25 22.4951 25 21.5909V3.40909C25 2.50494 24.6408 1.63783 24.0015 0.9985C23.3622 0.359171 22.4951 0 21.5909 0ZM8.52273 19.7841C8.52291 19.8534 8.50942 19.9221 8.48302 19.9862C8.45662 20.0503 8.41783 20.1086 8.36888 20.1576C8.31993 20.2067 8.26177 20.2457 8.19774 20.2723C8.13371 20.2988 8.06506 20.3125 7.99574 20.3125H5.75C5.68056 20.3127 5.61176 20.2991 5.54756 20.2727C5.48337 20.2462 5.42505 20.2073 5.37594 20.1581C5.32684 20.109 5.28792 20.0507 5.26143 19.9865C5.23494 19.9223 5.2214 19.8535 5.22159 19.7841V10.3693C5.22159 10.2292 5.27726 10.0948 5.37636 9.99568C5.47545 9.89658 5.60986 9.84091 5.75 9.84091H7.99574C8.13564 9.84128 8.26967 9.89712 8.36846 9.99618C8.46725 10.0952 8.52273 10.2294 8.52273 10.3693V19.7841ZM6.87216 8.94886C6.45075 8.94886 6.0388 8.8239 5.68842 8.58978C5.33803 8.35566 5.06493 8.02289 4.90367 7.63356C4.7424 7.24423 4.7002 6.81582 4.78242 6.40251C4.86463 5.98919 5.06756 5.60954 5.36554 5.31156C5.66352 5.01358 6.04317 4.81065 6.45648 4.72844C6.8698 4.64623 7.2982 4.68842 7.68754 4.84969C8.07687 5.01095 8.40963 5.28405 8.64376 5.63444C8.87788 5.98483 9.00284 6.39677 9.00284 6.81818C9.00284 7.38327 8.77836 7.92522 8.37878 8.3248C7.9792 8.72438 7.43725 8.94886 6.87216 8.94886ZM20.2614 19.821C20.2616 19.8849 20.2491 19.9481 20.2248 20.0072C20.2004 20.0662 20.1646 20.1198 20.1195 20.1649C20.0743 20.2101 20.0207 20.2459 19.9617 20.2702C19.9027 20.2946 19.8394 20.307 19.7756 20.3068H17.3608C17.2969 20.307 17.2337 20.2946 17.1747 20.2702C17.1156 20.2459 17.062 20.2101 17.0169 20.1649C16.9717 20.1198 16.9359 20.0662 16.9116 20.0072C16.8872 19.9481 16.8748 19.8849 16.875 19.821V15.4105C16.875 14.7514 17.0682 12.5241 15.152 12.5241C13.6676 12.5241 13.3651 14.0483 13.3054 14.733V19.8267C13.3054 19.9543 13.2552 20.0768 13.1656 20.1677C13.0761 20.2586 12.9543 20.3106 12.8267 20.3125H10.4943C10.4306 20.3125 10.3675 20.2999 10.3086 20.2755C10.2498 20.2511 10.1963 20.2153 10.1513 20.1701C10.1063 20.125 10.0707 20.0714 10.0464 20.0125C10.0221 19.9536 10.0098 19.8904 10.0099 19.8267V10.3281C10.0098 10.2644 10.0221 10.2013 10.0464 10.1423C10.0707 10.0834 10.1063 10.0298 10.1513 9.9847C10.1963 9.93957 10.2498 9.90377 10.3086 9.87934C10.3675 9.8549 10.4306 9.84233 10.4943 9.84233H12.8267C12.9555 9.84233 13.0791 9.89351 13.1702 9.98462C13.2613 10.0757 13.3125 10.1993 13.3125 10.3281V11.1491C13.8636 10.321 14.6804 9.68466 16.4233 9.68466C20.2841 9.68466 20.2585 13.2898 20.2585 15.2699L20.2614 19.821Z" fill="#F5F5F5"/>
</g>
<defs>
<clipPath id="clip0_403_453">
<rect width="25" height="25" fill="white"/>
</clipPath>
</defs>
</svg>
