<svg width="45" height="43" viewBox="0 0 45 43" fill="currentColor" xmlns="http://www.w3.org/2000/svg">
<path d="M27.2681 0C17.9869 0 10.436 7.54945 10.436 16.8289C10.436 19.5043 11.0667 22.0345 12.1819 24.2828L0.618988 35.8471C0.584535 35.8819 0.566957 35.9255 0.540941 35.9648C0.039613 36.553 -0.125621 37.4077 0.0972693 38.3456C0.310316 39.2403 0.848207 40.1544 1.6125 40.9187C2.66297 41.9678 3.92016 42.5292 4.99875 42.5289C5.65829 42.5289 6.25102 42.3193 6.68907 41.883C6.68977 41.8827 6.68977 41.8823 6.68977 41.8823L17.8287 30.7568C20.5223 32.5884 23.7722 33.6604 27.2681 33.6604C36.5487 33.6604 44.0995 26.1098 44.0995 16.8289C44.0995 7.54945 36.5487 0 27.2681 0ZM5.67235 40.8628C5.18157 41.3529 3.77672 41.0453 2.63063 39.9002C2.06039 39.3303 1.64836 38.6423 1.4986 38.0127C1.37836 37.5061 1.43883 37.0856 1.66524 36.8592C1.68493 36.8399 1.69196 36.8142 1.70883 36.7931L12.9054 25.5959C13.9073 27.2306 15.1807 28.6812 16.6622 29.8863L5.67235 40.8628ZM27.2681 32.2203C18.7807 32.2203 11.876 25.3157 11.876 16.8289C11.876 8.34328 18.7807 1.44 27.2681 1.44C35.7548 1.44 42.6595 8.34328 42.6595 16.8289C42.6595 25.3157 35.7548 32.2203 27.2681 32.2203Z" fill="white"/>
<path d="M37.5476 14.5702C36.7819 14.5157 36.0486 14.7674 35.4727 15.2698C35.0832 15.6101 34.8097 16.0432 34.6501 16.521L31.8298 16.3304C31.6779 14.9351 30.8975 13.7271 29.7795 12.9927L30.6718 10.7898C30.8377 10.8517 31.01 10.902 31.1907 10.9326C31.351 10.96 31.5113 10.973 31.6688 10.973C33.0392 10.973 34.2542 9.98263 34.4897 8.58728C34.752 7.03127 33.7001 5.55189 32.1441 5.28927C31.389 5.1606 30.6317 5.33568 30.0094 5.77865C29.3865 6.22162 28.973 6.8808 28.8458 7.63455C28.7023 8.48463 28.9611 9.30377 29.4694 9.92217L28.4647 12.4035C28.0822 12.3001 27.6821 12.24 27.2679 12.24C26.0797 12.24 24.9997 12.6974 24.1833 13.4403L22.5331 11.7703C22.8017 11.3629 22.9733 10.8978 23.007 10.3978C23.1125 8.82318 21.9186 7.45595 20.3443 7.35013C18.7644 7.23939 17.4024 8.43752 17.2955 10.0122C17.1901 11.5865 18.3847 12.954 19.959 13.0602C20.0251 13.0648 20.0904 13.0669 20.1558 13.0669C20.6178 13.0669 21.0615 12.9474 21.4651 12.7375L23.2763 14.5712C22.8966 15.2388 22.6772 16.0088 22.6772 16.83C22.6772 17.4389 22.7989 18.019 23.0154 18.5513L20.435 20.173C19.9477 19.6942 19.3212 19.3978 18.6322 19.3514C17.8665 19.2994 17.1324 19.5483 16.5572 20.051C15.9814 20.5538 15.6354 21.2509 15.5841 22.0135C15.4787 23.5881 16.6726 24.9553 18.2469 25.0611C18.3122 25.0657 18.3769 25.0678 18.4416 25.0678C19.9322 25.0678 21.1929 23.908 21.2956 22.3988C21.3188 22.0578 21.2724 21.7245 21.1796 21.406L23.7594 19.7842C24.6024 20.7833 25.8617 21.4204 27.2679 21.4204C27.3917 21.4204 27.514 21.4116 27.635 21.4017L28.1574 24.384C27.9922 24.4783 27.8347 24.589 27.6884 24.717C27.1126 25.2197 26.7666 25.9169 26.7153 26.6794C26.6098 28.2537 27.8037 29.6209 29.378 29.7274C29.4434 29.732 29.5081 29.7341 29.5721 29.7341C31.0627 29.7341 32.3241 28.574 32.4268 27.0651C32.5322 25.4908 31.3383 24.1239 29.764 24.0174C29.6944 24.0124 29.6262 24.023 29.5566 24.0233L29.0384 21.0642C30.4137 20.4873 31.4494 19.26 31.7609 17.769L34.5544 17.9578C34.7928 19.2048 35.8376 20.1906 37.1623 20.2803C37.2277 20.2848 37.2924 20.2869 37.3564 20.2869C38.8477 20.2869 40.1084 19.1268 40.2111 17.6179C40.3165 16.0436 39.1219 14.6763 37.5476 14.5702ZM30.2661 7.87431C30.3294 7.4999 30.5347 7.17224 30.844 6.95217C31.1534 6.73209 31.5296 6.64631 31.9044 6.70888C32.6771 6.83966 33.2002 7.57443 33.0694 8.34752C32.9394 9.12025 32.2109 9.64162 31.4304 9.51295C30.6577 9.38217 30.1353 8.64705 30.2661 7.87431ZM18.3439 23.6247C17.562 23.5719 16.9686 22.8927 17.0213 22.1105C17.0466 21.7315 17.2182 21.3856 17.5044 21.1356C17.7652 20.9074 18.0936 20.7847 18.4374 20.7847C18.4697 20.7847 18.5028 20.7858 18.5351 20.7879C18.9141 20.8136 19.2608 20.9851 19.5104 21.271C19.7607 21.5568 19.8844 21.9231 19.8584 22.3014C19.8057 23.0843 19.1222 23.6714 18.3439 23.6247ZM30.9896 26.9677C30.9369 27.7492 30.2703 28.3367 29.4751 28.291C28.6932 28.2379 28.0997 27.5587 28.1525 26.7764C28.1778 26.3974 28.3494 26.0515 28.6355 25.8015C28.921 25.5512 29.2887 25.4285 29.667 25.4538C30.4489 25.5069 31.0423 26.1861 30.9896 26.9677ZM20.056 11.6237C19.2734 11.5706 18.68 10.8911 18.7327 10.1095C18.7854 9.32697 19.4752 8.7374 20.2472 8.78662C21.0291 8.83935 21.6226 9.51857 21.5698 10.3008C21.5445 10.6798 21.3729 11.0261 21.0868 11.2757C20.8006 11.526 20.4315 11.6501 20.056 11.6237ZM27.2679 19.9804C26.1957 19.9804 25.25 19.44 24.6804 18.6202C24.6629 18.5467 24.6418 18.4732 24.5996 18.4057C24.5722 18.3621 24.5321 18.334 24.4976 18.2985C24.2628 17.858 24.1172 17.363 24.1172 16.83C24.1172 15.0929 25.5305 13.68 27.2679 13.68C29.0047 13.68 30.4179 15.0929 30.4179 16.83C30.4179 18.5671 29.0047 19.9804 27.2679 19.9804ZM37.2594 18.8438C36.4775 18.7907 35.884 18.1115 35.9368 17.3292C35.9621 16.9503 36.1336 16.6043 36.4198 16.3547C36.7053 16.1044 37.073 15.9842 37.4506 16.0067C38.2332 16.0597 38.8266 16.739 38.7739 17.5205C38.7212 18.3024 38.049 18.8923 37.2594 18.8438Z" fill="white"/>
</svg>
