<svg width="16" height="16" viewBox="0 0 16 16" fill="none" xmlns="http://www.w3.org/2000/svg">
<path d="M14.6965 11.68C14.2595 11.3135 11.6965 9.6905 11.2705 9.765C11.0705 9.8005 10.9175 9.971 10.508 10.4595C10.3186 10.6999 10.1107 10.9251 9.886 11.133C9.47439 11.0336 9.07597 10.8859 8.699 10.693C7.22064 9.97325 6.02632 8.77857 5.307 7.3C5.11412 6.92303 4.96643 6.52461 4.867 6.113C5.07486 5.88835 5.30006 5.68038 5.5405 5.491C6.0285 5.0815 6.1995 4.9295 6.235 4.7285C6.3095 4.3015 4.685 1.7395 4.32 1.3025C4.167 1.1215 4.028 1 3.85 1C3.334 1 1 3.886 1 4.26C1 4.2905 1.05 7.295 4.8445 11.1555C8.705 14.95 11.7095 15 11.74 15C12.114 15 15 12.666 15 12.15C15 11.972 14.8785 11.833 14.6965 11.68Z" fill="white"/>
<path d="M11.5 7.5H12.5C12.4988 6.4395 12.077 5.42278 11.3271 4.67289C10.5772 3.923 9.5605 3.50119 8.5 3.5V4.5C9.29541 4.50079 10.058 4.81712 10.6204 5.37956C11.1829 5.94199 11.4992 6.70459 11.5 7.5Z" fill="white"/>
<path d="M14 7.5H15C14.998 5.7767 14.3126 4.12455 13.094 2.906C11.8754 1.68744 10.2233 1.00198 8.5 1V2C9.95816 2.00172 11.3561 2.58174 12.3872 3.61281C13.4183 4.64389 13.9983 6.04184 14 7.5Z" fill="white"/>
</svg>
