<svg width="25" height="25" viewBox="0 0 25 25" fill="none" xmlns="http://www.w3.org/2000/svg">
<g clip-path="url(#clip0_403_442)">
<path d="M13.2881 12.0738L18.8937 20.1209H16.5932L12.0189 13.5544V13.554L11.3474 12.5901L6.00391 4.91895H8.30442L12.6166 11.1099L13.2881 12.0738Z" fill="#F5F5F5"/>
<path d="M22.2179 0H2.69152C1.20507 0 0 1.20945 0 2.7013V22.2987C0 23.7905 1.20507 25 2.69152 25H22.2179C23.7043 25 24.9094 23.7905 24.9094 22.2987V2.7013C24.9094 1.20945 23.7043 0 22.2179 0ZM15.888 21.2005L11.2592 14.4393L5.46383 21.2005H3.96602L10.5941 13.4682L3.96602 3.78667H9.02139L13.4046 10.1891L18.8924 3.78667H20.3902L14.0699 11.1603H14.0695L20.9434 21.2005H15.888Z" fill="#F5F5F5"/>
</g>
<defs>
<clipPath id="clip0_403_442">
<rect width="24.9094" height="25" fill="white"/>
</clipPath>
</defs>
</svg>
