<svg width="32" height="33" viewBox="0 0 32 33" fill="none" xmlns="http://www.w3.org/2000/svg">
<path d="M28.4018 0H3.32182C1.48909 0 0 1.48909 0 3.32182V5.58545V28.8982C0 30.7309 1.48909 32.22 3.32182 32.22H28.4018C30.2345 32.22 31.7236 30.7309 31.7236 28.8982V5.58V3.32182C31.7236 1.48909 30.2345 0 28.4018 0ZM0.736364 3.32182C0.736364 1.89818 1.89273 0.741818 3.31636 0.741818H28.3964C29.82 0.741818 30.9764 1.89818 30.9764 3.32182V5.21455H0.736364V3.32182ZM30.9873 28.8927C30.9873 30.3164 29.8309 31.4727 28.4073 31.4727H3.32182C1.89818 31.4727 0.741818 30.3164 0.741818 28.8927V5.95091H30.9873V28.8927Z" fill="white"/>
<path d="M4.61982 3.46912C4.89094 3.46912 5.11072 3.24934 5.11072 2.97821C5.11072 2.70709 4.89094 2.4873 4.61982 2.4873C4.34869 2.4873 4.12891 2.70709 4.12891 2.97821C4.12891 3.24934 4.34869 3.46912 4.61982 3.46912Z" fill="white"/>
<path d="M7.18378 3.46912C7.4549 3.46912 7.67469 3.24934 7.67469 2.97821C7.67469 2.70709 7.4549 2.4873 7.18378 2.4873C6.91266 2.4873 6.69287 2.70709 6.69287 2.97821C6.69287 3.24934 6.91266 3.46912 7.18378 3.46912Z" fill="white"/>
<path d="M9.74189 3.46912C10.013 3.46912 10.2328 3.24934 10.2328 2.97821C10.2328 2.70709 10.013 2.4873 9.74189 2.4873C9.47076 2.4873 9.25098 2.70709 9.25098 2.97821C9.25098 3.24934 9.47076 3.46912 9.74189 3.46912Z" fill="white"/>
<path d="M27.4527 2.60718H17.3836C17.1818 2.60718 17.0127 2.77081 17.0127 2.97809C17.0127 3.17991 17.1763 3.349 17.3836 3.349H27.4527C27.6545 3.349 27.8236 3.18536 27.8236 2.97809C27.8236 2.77081 27.66 2.60718 27.4527 2.60718Z" fill="white"/>
<path d="M5.59089 22.151H13.8763H17.8527C17.94 22.151 18.0218 22.1456 18.1091 22.1347C18.6163 22.0801 19.0909 21.8619 19.4618 21.5128C19.5218 21.4528 19.5818 21.3928 19.6363 21.3274C19.9909 20.9019 20.1927 20.3674 20.1927 19.8165V11.2474C20.1927 9.96011 19.1454 8.91284 17.8582 8.91284H5.59089C4.30362 8.91284 3.25635 9.96011 3.25635 11.2474V19.8165C3.25635 20.2856 3.39817 20.7383 3.66544 21.1365C4.1018 21.7692 4.8218 22.151 5.59089 22.151ZM5.23635 21.371C5.19817 21.3601 5.16544 21.3492 5.12726 21.3383C5.05089 21.3165 4.97453 21.2892 4.90362 21.251C4.86544 21.2292 4.82726 21.2074 4.78907 21.1856C4.72362 21.1474 4.66362 21.1038 4.60362 21.0601C4.56544 21.0328 4.53271 21.0001 4.49998 20.9728C4.48362 20.9565 4.46726 20.9347 4.44544 20.9128L8.1218 15.9001C8.23635 15.7419 8.4218 15.6492 8.61817 15.6492C8.81453 15.6492 8.99453 15.7419 9.11453 15.9001L13.1509 21.4092L13.1618 21.4201H5.59089C5.47089 21.4147 5.35089 21.3983 5.23635 21.371ZM14.0673 21.4147L12.6927 19.5328L14.5527 17.6728C14.7873 17.4383 15.1909 17.4383 15.42 17.6728L18.8291 21.0819C18.8291 21.0819 18.8291 21.0819 18.8236 21.0874C18.8182 21.0928 18.8073 21.0983 18.8018 21.1038C18.7254 21.1583 18.6436 21.2074 18.5618 21.251C18.5345 21.2674 18.5018 21.2783 18.4745 21.2892C18.4036 21.3165 18.3327 21.3438 18.2618 21.3601C18.2345 21.3656 18.2018 21.3765 18.1691 21.3819C18.0654 21.4038 17.9618 21.4147 17.8582 21.4147H14.0673ZM3.99271 11.2474C3.99271 10.3638 4.70726 9.64921 5.59089 9.64921H17.8582C18.7418 9.64921 19.4563 10.3638 19.4563 11.2474V19.8165C19.4563 20.0619 19.3963 20.291 19.2927 20.5038L15.9382 17.1492C15.4254 16.6365 14.5363 16.6365 14.0236 17.1492L12.2454 18.9274L9.69817 15.4528C9.4418 15.1038 9.04362 14.9019 8.60726 14.9019C8.17089 14.9019 7.77271 15.1038 7.51635 15.4528L4.0418 20.1928C4.00907 20.0674 3.99271 19.9419 3.99271 19.811V11.2474Z" fill="white"/>
<path d="M13.6748 14.5309C14.6566 14.5309 15.4584 13.7291 15.4584 12.7473C15.4584 11.7654 14.6566 10.9636 13.6748 10.9636C12.6875 10.9636 11.8911 11.7654 11.8911 12.7473C11.8857 13.7345 12.6875 14.5309 13.6748 14.5309ZM13.6748 11.7C14.253 11.7 14.7221 12.1691 14.7221 12.7473C14.7221 13.3254 14.253 13.7945 13.6748 13.7945C13.0966 13.7945 12.6275 13.3254 12.6275 12.7473C12.6275 12.1691 13.0966 11.7 13.6748 11.7Z" fill="white"/>
<path d="M22.4183 11.7001H29.3128C29.5146 11.7001 29.6837 11.5364 29.6837 11.3292C29.6837 11.1273 29.5201 10.9583 29.3128 10.9583H22.4183C22.2165 10.9583 22.0474 11.1219 22.0474 11.3292C22.0474 11.5364 22.2165 11.7001 22.4183 11.7001Z" fill="white"/>
<path d="M22.4183 15.0819H29.3128C29.5146 15.0819 29.6837 14.9183 29.6837 14.711C29.6837 14.5092 29.5201 14.3401 29.3128 14.3401H22.4183C22.2165 14.3401 22.0474 14.5037 22.0474 14.711C22.0474 14.9128 22.2165 15.0819 22.4183 15.0819Z" fill="white"/>
<path d="M22.4183 18.4581H29.3128C29.5146 18.4581 29.6837 18.2945 29.6837 18.0872C29.6837 17.8799 29.5201 17.7163 29.3128 17.7163H22.4183C22.2165 17.7163 22.0474 17.8799 22.0474 18.0872C22.0474 18.2945 22.2165 18.4581 22.4183 18.4581Z" fill="white"/>
<path d="M22.4183 21.8346H29.3128C29.5146 21.8346 29.6837 21.671 29.6837 21.4637C29.6837 21.2619 29.5201 21.0928 29.3128 21.0928H22.4183C22.2165 21.0928 22.0474 21.2564 22.0474 21.4637C22.0474 21.671 22.2165 21.8346 22.4183 21.8346Z" fill="white"/>
<path d="M3.01642 25.2164H28.7019C28.9037 25.2164 29.0728 25.0528 29.0728 24.8455C29.0728 24.6437 28.9091 24.4746 28.7019 24.4746H3.01642C2.8146 24.4746 2.64551 24.6382 2.64551 24.8455C2.65096 25.0528 2.8146 25.2164 3.01642 25.2164Z" fill="white"/>
<path d="M28.7073 27.8564H18.6873C18.4855 27.8564 18.3164 28.0201 18.3164 28.2274C18.3164 28.4292 18.48 28.5983 18.6873 28.5983H28.7019C28.9037 28.5983 29.0728 28.4346 29.0728 28.2274C29.0728 28.0201 28.9091 27.8564 28.7073 27.8564Z" fill="white"/>
<path d="M15.7853 27.8564H9.34894C9.14712 27.8564 8.97803 28.0201 8.97803 28.2274C8.97803 28.4292 9.14166 28.5983 9.34894 28.5983H15.7798C15.9817 28.5983 16.1508 28.4346 16.1508 28.2274C16.1508 28.0201 15.9871 27.8564 15.7853 27.8564Z" fill="white"/>
<path d="M3.01642 28.5926H7.27096C7.47278 28.5926 7.64187 28.429 7.64187 28.2217C7.64187 28.0199 7.47823 27.8508 7.27096 27.8508H3.01642C2.8146 27.8508 2.64551 28.0145 2.64551 28.2217C2.65096 28.429 2.8146 28.5926 3.01642 28.5926Z" fill="white"/>
</svg>
