<svg width="33" height="36" viewBox="0 0 33 36" fill="none" xmlns="http://www.w3.org/2000/svg">
<path d="M25.6915 17.6804H28.2026C28.7703 17.6804 29.2322 17.2185 29.2322 16.6508V14.1396C29.2322 13.5719 28.7703 13.11 28.2026 13.11H25.6915C25.1238 13.11 24.6619 13.5719 24.6619 14.1396V16.6508C24.6619 17.2185 25.1238 17.6804 25.6915 17.6804ZM25.7166 14.1647H28.1775V16.6257H25.7166V14.1647ZM25.6915 24.36H28.2026C28.7703 24.36 29.2322 23.8982 29.2322 23.3305V20.8193C29.2322 20.2516 28.7703 19.7897 28.2026 19.7897H25.6915C25.1238 19.7897 24.6619 20.2516 24.6619 20.8193V23.3305C24.6619 23.8982 25.1238 24.36 25.6915 24.36ZM25.7166 20.8444H28.1775V23.3054H25.7166V20.8444ZM18.5255 17.6804H21.0367C21.6044 17.6804 22.0662 17.2185 22.0662 16.6508V14.1396C22.0662 13.5719 21.6044 13.11 21.0367 13.11H18.5255C17.9578 13.11 17.4959 13.5719 17.4959 14.1396V16.6508C17.4959 17.2185 17.9578 17.6804 18.5255 17.6804ZM18.5506 14.1647H21.0116V16.6257H18.5506V14.1647ZM6.70472 26.1562H4.19358C3.62587 26.1562 3.16399 26.6181 3.16399 27.1858V29.697C3.16399 30.2647 3.62587 30.7266 4.19358 30.7266H6.70472C7.27242 30.7266 7.73431 30.2647 7.73431 29.697V27.1858C7.73431 26.6181 7.27242 26.1562 6.70472 26.1562ZM6.67962 29.6719H4.21868V27.2109H6.67962V29.6719ZM6.70472 13.11H4.19358C3.62587 13.11 3.16399 13.5719 3.16399 14.1396V16.6508C3.16399 17.2185 3.62587 17.6804 4.19358 17.6804H6.70472C7.27242 17.6804 7.73431 17.2185 7.73431 16.6508V14.1396C7.73431 13.5719 7.27242 13.11 6.70472 13.11ZM6.67962 16.6257H4.21868V14.1647H6.67962V16.6257ZM18.5255 24.2035H21.0367C21.6044 24.2035 22.0662 23.7416 22.0662 23.1739V20.6627C22.0662 20.095 21.6044 19.6331 21.0367 19.6331H18.5255C17.9578 19.6331 17.4959 20.095 17.4959 20.6627V23.1739C17.4959 23.7416 17.9578 24.2035 18.5255 24.2035ZM18.5506 20.6878H21.0116V23.1488H18.5506V20.6878ZM29.756 2.40989H27.5013V1.60362C27.5013 0.719367 26.782 0 25.8977 0H25.6556C24.7714 0 24.052 0.719367 24.052 1.60362V2.40989H8.3442V1.60362C8.3442 0.719367 7.62483 0 6.74058 0H6.49842C5.61417 0 4.8948 0.719367 4.8948 1.60362V2.40989H2.64023C1.18441 2.40989 0 3.5943 0 5.05012V33.3633C0 34.8172 1.1828 36 2.63672 36H29.7596C31.2135 36 32.3963 34.8172 32.3963 33.3633V5.05012C32.3963 3.5943 31.2119 2.40989 29.756 2.40989ZM25.1067 1.60362C25.1067 1.30092 25.3529 1.05469 25.6556 1.05469H25.8978C26.2005 1.05469 26.4467 1.30092 26.4467 1.60362V2.40989H25.1067V1.60362ZM5.94956 1.60362C5.94956 1.30092 6.1958 1.05469 6.49849 1.05469H6.74065C7.04334 1.05469 7.28958 1.30092 7.28958 1.60362V2.40989H5.94963V1.60362H5.94956ZM31.3416 33.3633C31.3416 34.2356 30.6319 34.9453 29.7596 34.9453H2.63665C1.76428 34.9453 1.05462 34.2356 1.05462 33.3633V33.36C1.49646 33.6929 2.04567 33.8906 2.64023 33.8906H24.0211C24.7263 33.8906 25.3894 33.616 25.888 33.1173L31.3416 27.6637V33.3633ZM25.3499 32.1638C25.3912 31.9932 25.4137 31.8152 25.4137 31.632V28.1119C25.4137 27.4482 25.9538 26.9081 26.6176 26.9081H30.1377C30.3209 26.9081 30.4988 26.8856 30.6695 26.8443L25.3499 32.1638ZM31.3416 9.94598H8.87154C8.58031 9.94598 8.3442 10.1821 8.3442 10.4733C8.3442 10.7646 8.58031 11.0007 8.87154 11.0007H31.3416V24.6496C31.3416 25.3134 30.8015 25.8535 30.1377 25.8535H26.6176C25.3723 25.8535 24.3591 26.8667 24.3591 28.112V31.6321C24.3591 32.2959 23.819 32.836 23.1552 32.836H2.64023C1.76597 32.836 1.05469 32.1247 1.05469 31.2504V11.0007H6.76216C7.0534 11.0007 7.28951 10.7646 7.28951 10.4733C7.28951 10.1821 7.0534 9.94598 6.76216 9.94598H1.05462V5.05012C1.05462 4.17586 1.7659 3.46458 2.64016 3.46458H4.8948V5.01511C4.8948 5.89936 5.61417 6.61873 6.49842 6.61873C6.78966 6.61873 7.02577 6.38262 7.02577 6.09138C7.02577 5.80015 6.78966 5.56404 6.49842 5.56404C6.19573 5.56404 5.94949 5.3178 5.94949 5.01511V3.46458H24.052V5.01511C24.052 5.89936 24.7714 6.61873 25.6556 6.61873C25.9469 6.61873 26.183 6.38262 26.183 6.09138C26.183 5.80015 25.9469 5.56404 25.6556 5.56404C25.3529 5.56404 25.1067 5.3178 25.1067 5.01511V3.46458H29.756C30.6303 3.46458 31.3416 4.17586 31.3416 5.05012V9.94598ZM6.70472 19.6331H4.19358C3.62587 19.6331 3.16399 20.095 3.16399 20.6627V23.1739C3.16399 23.7416 3.62587 24.2035 4.19358 24.2035H6.70472C7.27242 24.2035 7.73431 23.7416 7.73431 23.1739V20.6627C7.73431 20.095 7.27242 19.6331 6.70472 19.6331ZM6.67962 23.1488H4.21868V20.6878H6.67962V23.1488ZM11.3595 17.6804H13.8707C14.4384 17.6804 14.9003 17.2185 14.9003 16.6508V14.1396C14.9003 13.5719 14.4384 13.11 13.8707 13.11H11.3595C10.7918 13.11 10.33 13.5719 10.33 14.1396V16.6508C10.33 17.2185 10.7918 17.6804 11.3595 17.6804ZM11.3846 14.1647H13.8456V16.6257H11.3846V14.1647ZM18.55 29.6719C18.5369 29.3922 18.3061 29.1696 18.0232 29.1696C17.732 29.1696 17.4959 29.4057 17.4959 29.697C17.4959 30.2647 17.9577 30.7266 18.5254 30.7266H21.0366C21.6043 30.7266 22.0662 30.2647 22.0662 29.697V27.1858C22.0662 26.6181 21.6043 26.1562 21.0366 26.1562H18.5254C17.9577 26.1562 17.4959 26.6181 17.4959 27.1858V27.9101C17.4959 28.2013 17.732 28.4374 18.0232 28.4374C18.3144 28.4374 18.5505 28.2013 18.5505 27.9101V27.2109H21.0115V29.6719H18.55ZM11.3595 24.2035H13.8707C14.4384 24.2035 14.9003 23.7416 14.9003 23.1739V20.6627C14.9003 20.095 14.4384 19.6331 13.8707 19.6331H11.3595C10.7918 19.6331 10.33 20.095 10.33 20.6627V23.1739C10.33 23.7416 10.7918 24.2035 11.3595 24.2035ZM11.3846 20.6878H13.8456V23.1488H11.3846V20.6878ZM11.3595 30.7266H13.8707C14.4384 30.7266 14.9003 30.2647 14.9003 29.697V27.1858C14.9003 26.6181 14.4384 26.1562 13.8707 26.1562H11.3595C10.7918 26.1562 10.33 26.6181 10.33 27.1858V29.697C10.33 30.2647 10.7918 30.7266 11.3595 30.7266ZM11.3846 27.2109H13.8456V29.6719H11.3846V27.2109Z" fill="white"/>
</svg>
