<svg width="44" height="44" viewBox="0 0 44 44" fill="none" xmlns="http://www.w3.org/2000/svg">
<path d="M33.7937 24.1209L26.5681 18.0365C26.2951 17.8076 25.8916 17.8234 25.6386 18.0764L25.0253 18.6903C24.1412 19.5745 23.6544 20.7494 23.6544 22C23.6544 23.2505 24.1412 24.4255 25.0253 25.3096L28.3453 28.6302C28.6141 28.899 29.0486 28.899 29.3174 28.6302C29.5862 28.3621 29.5862 27.9269 29.3174 27.6581L25.9974 24.3375C25.3732 23.7132 25.0294 22.8827 25.0294 22C25.0294 21.1172 25.3732 20.2867 25.9974 19.6625L26.1652 19.4947L32.9048 25.17C36.1229 27.9125 36.6984 32.3716 34.1821 35.3636L31.2314 39.479C29.8193 41.4493 27.5292 42.625 25.1064 42.625H20.362C18.3483 42.625 16.4556 41.8405 15.0318 40.4174L13.3158 38.7014C13.047 38.4326 12.6125 38.4326 12.3437 38.7014C12.0749 38.9702 12.0749 39.4047 12.3437 39.6735L14.0597 41.3895C15.7427 43.0732 17.9805 44 20.3613 44H25.1058C27.9713 44 30.6786 42.6098 32.3486 40.2806L35.2663 36.2071C38.2439 32.6713 37.5976 27.3638 33.7937 24.1209Z" fill="white"/>
<path d="M29.5193 35.0625V30.9375C29.5193 30.558 29.212 30.25 28.8318 30.25C28.4516 30.25 28.1443 30.558 28.1443 30.9375V31.625H10.2693V2.0625C10.2693 1.68369 10.5773 1.375 10.9568 1.375H15.0818V2.0625C15.0818 3.19963 16.0071 4.125 17.1443 4.125H21.2693C22.4064 4.125 23.3318 3.19963 23.3318 2.0625V1.375H27.4568C27.8363 1.375 28.1443 1.68369 28.1443 2.0625V17.875C28.1443 18.2545 28.4516 18.5625 28.8318 18.5625C29.212 18.5625 29.5193 18.2545 29.5193 17.875V2.0625C29.5193 0.925375 28.5939 0 27.4568 0H10.9568C9.81964 0 8.89427 0.925375 8.89427 2.0625V11.1464C7.87127 10.604 6.61589 10.6982 5.74758 11.4806C5.29039 11.8924 4.99133 12.4259 4.88202 13.0164C3.88377 12.5476 2.69096 12.6761 1.85908 13.4248C1.29189 13.9363 0.96808 14.6369 0.948143 15.3979C0.928893 16.1487 1.22108 16.8843 1.75252 17.4151L2.01171 17.6742C1.50227 17.8097 1.04302 18.0895 0.67933 18.4937C-0.298982 19.58 -0.218545 21.2774 0.86358 22.3589L2.01239 23.5077C1.50364 23.6431 1.04371 23.9229 0.680018 24.3272C-0.298295 25.4134 -0.217857 27.1109 0.864268 28.1923L6.39108 33.7191C6.52514 33.8532 6.70114 33.9206 6.87714 33.9206C7.05314 33.9206 7.22914 33.8532 7.36321 33.7191C7.63202 33.4503 7.63202 33.0158 7.36321 32.747L1.83639 27.2202C1.28158 26.6661 1.22108 25.7812 1.70233 25.2471C1.95877 24.9624 2.30939 24.8002 2.69027 24.7906C3.06908 24.7802 3.42658 24.9219 3.69608 25.19L3.69883 25.1928L8.89702 30.3909V35.0625C8.89702 36.1996 9.82239 37.125 10.9595 37.125H27.4595C28.5939 37.125 29.5193 36.1996 29.5193 35.0625ZM21.9568 2.0625C21.9568 2.44131 21.6488 2.75 21.2693 2.75H17.1443C16.7648 2.75 16.4568 2.44131 16.4568 2.0625V1.375H21.9568V2.0625ZM6.66677 12.5022C7.20027 12.0216 8.08577 12.0814 8.63989 12.6362L8.89358 12.8899V16.7791L6.61452 14.4994C6.61452 14.4994 6.61383 14.4994 6.61383 14.4987C6.61383 14.498 6.61383 14.498 6.61314 14.498C6.34364 14.2285 6.20064 13.8703 6.21027 13.4894C6.22058 13.1093 6.38283 12.7586 6.66677 12.5022ZM2.77827 14.4464C3.31246 13.9666 4.19796 14.0271 4.75071 14.5805L5.64033 15.4701L8.89358 18.7234V22.6126L4.66821 18.3872L2.72396 16.4429C2.45446 16.1734 2.31146 15.8153 2.32177 15.4344C2.33208 15.0535 2.49433 14.7029 2.77827 14.4464ZM4.66821 24.2206L1.83433 21.3861C1.27952 20.8319 1.21902 19.9471 1.70027 19.4129C1.95671 19.1283 2.30733 18.9661 2.68821 18.9564C3.06702 18.9509 3.42452 19.0877 3.69402 19.3559L3.69677 19.3586L8.89495 24.5568V28.446L4.66821 24.2206ZM10.2693 35.0625V33H28.1443V35.0625C28.1443 35.4413 27.8363 35.75 27.4568 35.75H10.9568C10.5773 35.75 10.2693 35.4413 10.2693 35.0625Z" fill="white"/>
<path d="M19.2705 14.4375H17.855C17.4748 14.4375 17.1675 14.7455 17.1675 15.125C17.1675 15.5045 17.4748 15.8125 17.855 15.8125H18.5624V16.5C18.5624 16.8795 18.8697 17.1875 19.2499 17.1875C19.6301 17.1875 19.9374 16.8795 19.9374 16.5V15.6922C20.7466 15.4131 21.3324 14.6527 21.3324 13.75C21.3324 12.6129 20.407 11.6875 19.2293 11.6875C18.8498 11.6875 18.5418 11.3788 18.5418 11C18.5418 10.6212 18.8498 10.3125 19.2293 10.3125H20.6449C21.025 10.3125 21.3324 10.0045 21.3324 9.625C21.3324 9.2455 21.025 8.9375 20.6449 8.9375H19.9374V8.25C19.9374 7.8705 19.6301 7.5625 19.2499 7.5625C18.8697 7.5625 18.5624 7.8705 18.5624 8.25V9.05781C17.7532 9.33694 17.1675 10.0973 17.1675 11C17.1675 12.1371 18.0929 13.0625 19.2705 13.0625C19.65 13.0625 19.958 13.3712 19.958 13.75C19.958 14.1288 19.65 14.4375 19.2705 14.4375Z" fill="white"/>
<path d="M11.6885 23.375C11.6885 25.2704 13.2305 26.8125 15.126 26.8125H23.376C23.7562 26.8125 24.0635 26.5045 24.0635 26.125C24.0635 25.7455 23.7562 25.4375 23.376 25.4375H15.126C13.9889 25.4375 13.0635 24.5121 13.0635 23.375C13.0635 22.2379 13.9889 21.3125 15.126 21.3125H22.001C22.3812 21.3125 22.6885 21.0045 22.6885 20.625C22.6885 20.2455 22.3812 19.9375 22.001 19.9375H15.126C13.2305 19.9375 11.6885 21.4796 11.6885 23.375Z" fill="white"/>
<path d="M37.8125 11C34.4004 11 31.625 13.7761 31.625 17.1875C31.625 20.5989 34.4004 23.375 37.8125 23.375C41.2246 23.375 44 20.5989 44 17.1875C44 13.7761 41.2246 11 37.8125 11ZM37.8125 22C35.1594 22 33 19.8412 33 17.1875C33 14.5338 35.1594 12.375 37.8125 12.375C40.4656 12.375 42.625 14.5338 42.625 17.1875C42.625 19.8412 40.4656 22 37.8125 22Z" fill="white"/>
<path d="M39.3891 15.3265L37.1252 17.5904L36.2362 16.7015C35.9674 16.4327 35.5329 16.4327 35.2641 16.7015C34.9953 16.9703 34.9953 17.4048 35.2641 17.6736L36.6391 19.0486C36.7732 19.1827 36.9492 19.2501 37.1252 19.2501C37.3012 19.2501 37.4772 19.1827 37.6112 19.0486L40.3612 16.2986C40.63 16.0298 40.63 15.5953 40.3612 15.3265C40.0924 15.0577 39.6579 15.0577 39.3891 15.3265Z" fill="white"/>
<path d="M22 22.6875H16.5C16.1198 22.6875 15.8125 22.9955 15.8125 23.375C15.8125 23.7545 16.1198 24.0625 16.5 24.0625H22C22.3802 24.0625 22.6875 23.7545 22.6875 23.375C22.6875 22.9955 22.3802 22.6875 22 22.6875Z" fill="white"/>
</svg>
