<svg width="35" height="29" viewBox="0 0 35 29" fill="none" xmlns="http://www.w3.org/2000/svg">
<path fill-rule="evenodd" clip-rule="evenodd" d="M34.3164 13.8762H32.0597V11.8486C32.0597 11.471 31.7537 11.165 31.3762 11.165H29.8212C29.5411 10.146 29.136 9.16924 28.6121 8.24905L29.7126 7.14863C29.8407 7.02045 29.9128 6.84635 29.9128 6.66531C29.9128 6.48399 29.8407 6.31016 29.7126 6.18172L25.878 2.34718C25.6113 2.08042 25.1784 2.08042 24.9114 2.34718L23.8107 3.44788C22.8905 2.9237 21.9135 2.51862 20.895 2.2385V0.683594C20.895 0.306015 20.589 0 20.2114 0H14.7886C14.411 0 14.105 0.306015 14.105 0.683594V2.2385C13.0863 2.51862 12.1092 2.9237 11.189 3.44788L10.0886 2.34718C9.82159 2.08042 9.38873 2.08042 9.1217 2.34718L5.28717 6.18172C5.159 6.30989 5.0869 6.48373 5.0869 6.66504C5.0869 6.84635 5.159 7.02019 5.28717 7.14836L6.38786 8.24905C5.86342 9.16977 5.45834 10.1468 5.17849 11.1647H3.62385C3.24627 11.1647 2.94025 11.471 2.94025 11.8483V13.8762H0.683594C0.306015 13.8762 0 14.1824 0 14.5597C0 14.9373 0.306015 15.2433 0.683594 15.2433H14.7656C15.1432 15.2433 15.4492 14.9373 15.4492 14.5597C15.4492 14.1824 15.1432 13.8762 14.7656 13.8762H11.8179C12.157 11.0411 14.575 8.83545 17.5 8.83545C20.425 8.83545 22.843 11.0411 23.1821 13.8762H20.2344C19.8568 13.8762 19.5508 14.1824 19.5508 14.5597C19.5508 14.9373 19.8568 15.2433 20.2344 15.2433H34.3164C34.694 15.2433 35 14.9373 35 14.5597C35 14.1824 34.694 13.8762 34.3164 13.8762ZM17.5 7.46826C13.8203 7.46826 10.7864 10.2857 10.4414 13.8762H4.30744V12.5322H5.71121C6.03004 12.5322 6.30642 12.3119 6.37772 12.0011C6.66103 10.7631 7.1489 9.58714 7.82715 8.50567C7.99644 8.2357 7.95692 7.88429 7.73155 7.65892L6.7374 6.66504L9.60529 3.79742L10.5992 4.7913C10.8248 5.01667 11.176 5.05619 11.4459 4.88689C12.5263 4.20891 13.7023 3.72131 14.9413 3.43719C15.2519 3.36617 15.4722 3.08979 15.4722 2.77096V1.36719H19.5278V2.77096C19.5278 3.08979 19.7481 3.36617 20.0587 3.43746C21.2974 3.72131 22.4737 4.20918 23.5543 4.88689C23.8243 5.05646 24.1755 5.01667 24.4008 4.7913L25.3947 3.79742L28.2626 6.66531L27.2687 7.65892C27.0433 7.88456 27.0036 8.2357 27.1731 8.50567C27.8508 9.58607 28.3384 10.7621 28.6226 12.0013C28.6936 12.3119 28.97 12.5322 29.2888 12.5322H30.6928V13.8764H24.5586C24.2136 10.2857 21.1797 7.46826 17.5 7.46826Z" fill="white"/>
<path fill-rule="evenodd" clip-rule="evenodd" d="M6.88334 19.1318H8.32529C9.13439 19.1318 9.79235 19.79 9.79235 20.5991C9.79235 20.9764 10.0986 21.2827 10.4759 21.2827C10.8535 21.2827 11.1595 20.9764 11.1595 20.5991C11.1595 19.0362 9.88821 17.7646 8.32529 17.7646H6.88334C5.32042 17.7646 4.04883 19.0362 4.04883 20.5991V25.8294C4.04883 27.3923 5.32042 28.6639 6.88334 28.6639H8.32529C9.88821 28.6639 11.1595 27.3923 11.1595 25.8294C11.1595 25.4521 10.8535 25.1458 10.4759 25.1458C10.0986 25.1458 9.79235 25.4521 9.79235 25.8294C9.79235 26.6385 9.13439 27.2967 8.32529 27.2967H6.88334C6.07424 27.2967 5.41602 26.6385 5.41602 25.8294V20.5991C5.41602 19.79 6.07424 19.1318 6.88334 19.1318Z" fill="white"/>
<path fill-rule="evenodd" clip-rule="evenodd" d="M22.2093 17.9016C21.9086 17.8231 21.5924 17.9572 21.4405 18.2285L17.8831 24.5696L14.3258 18.2285C14.1736 17.9572 13.8574 17.8228 13.5567 17.9016C13.2558 17.9801 13.0459 18.252 13.0459 18.563V27.8655C13.0459 28.2431 13.3519 28.5491 13.7295 28.5491C14.1071 28.5491 14.4131 28.2431 14.4131 27.8655V21.1786L17.2868 26.3013C17.4078 26.5168 17.6356 26.6503 17.8829 26.6503C18.1301 26.6503 18.3582 26.5168 18.4791 26.3013L21.3529 21.1786V27.8655C21.3529 28.2431 21.6589 28.5491 22.0365 28.5491C22.4141 28.5491 22.7201 28.2431 22.7201 27.8655V18.563C22.7201 18.252 22.5102 17.9801 22.2093 17.9016Z" fill="white"/>
<path fill-rule="evenodd" clip-rule="evenodd" d="M27.7343 22.5308C26.7142 22.5308 25.8843 21.7009 25.8843 20.6806C25.8843 19.6605 26.7142 18.8306 27.7343 18.8306C28.3308 18.8306 28.894 19.1209 29.2414 19.6071C29.4606 19.9145 29.8876 19.9855 30.1947 19.7663C30.502 19.5468 30.5733 19.1201 30.3538 18.8127C29.7506 17.9678 28.7714 17.4634 27.7343 17.4634C25.9604 17.4634 24.5171 18.9067 24.5171 20.6806C24.5171 22.4547 25.9604 23.898 27.7343 23.898C28.7543 23.898 29.5842 24.7277 29.5842 25.7477C29.5842 26.768 28.7543 27.598 27.7343 27.598C27.0443 27.598 26.4162 27.218 26.095 26.6067C25.9195 26.2724 25.5062 26.144 25.1721 26.3194C24.8378 26.4951 24.7091 26.9082 24.8848 27.2425C25.4429 28.305 26.5348 28.9651 27.7343 28.9651C29.5081 28.9651 30.9514 27.5219 30.9514 25.7477C30.9514 23.9738 29.5081 22.5308 27.7343 22.5308Z" fill="white"/>
<path fill-rule="evenodd" clip-rule="evenodd" d="M18.1836 14.5598C18.1836 14.1835 17.8765 13.8762 17.5 13.8762C17.1235 13.8762 16.8164 14.1835 16.8164 14.5598C16.8164 14.9363 17.1235 15.2433 17.5 15.2433C17.8765 15.2433 18.1836 14.9363 18.1836 14.5598Z" fill="white"/>
</svg>
