<svg width="36" height="35" viewBox="0 0 36 35" fill="none" xmlns="http://www.w3.org/2000/svg">
<path d="M8.9999 2.91667H9.5999C9.93125 2.91667 10.1999 2.65548 10.1999 2.33333C10.1999 2.01119 9.93125 1.75 9.5999 1.75H8.9999C8.66855 1.75 8.3999 2.01119 8.3999 2.33333C8.3999 2.65548 8.66855 2.91667 8.9999 2.91667Z" fill="white"/>
<path d="M11.9999 2.91667H12.5999C12.9313 2.91667 13.1999 2.65548 13.1999 2.33333C13.1999 2.01119 12.9313 1.75 12.5999 1.75H11.9999C11.6686 1.75 11.3999 2.01119 11.3999 2.33333C11.3999 2.65548 11.6686 2.91667 11.9999 2.91667Z" fill="white"/>
<path d="M35.4 5.83333H21.6V2.91667C21.6 1.30586 20.2568 0 18.6 0H3C1.34318 0 0 1.30586 0 2.91667V29.1667C0 30.7775 1.34318 32.0833 3 32.0833H14.4V34.4167C14.4 34.7388 14.6687 35 15 35H27C27.3314 35 27.6 34.7388 27.6 34.4167V30.9167C27.6 30.5945 27.3314 30.3333 27 30.3333H26.4V30.1058C26.4005 29.9896 26.436 29.8761 26.502 29.7792L26.892 29.2075C27.3537 28.5359 27.6001 27.7462 27.6 26.9383V21H35.4C35.7313 21 36 20.7388 36 20.4167V6.41667C36 6.09452 35.7313 5.83333 35.4 5.83333ZM1.2 2.91667C1.203 1.9514 2.00715 1.16958 3 1.16667H18.6C19.5929 1.16958 20.397 1.9514 20.4 2.91667V3.5H1.2V2.91667ZM1.2 4.66667H20.4V5.83333H18.6C18.2687 5.83333 18 6.09452 18 6.41667V12.9442C17.2757 13.2155 16.7985 13.8929 16.8 14.6475V19.8333H16.2C15.2072 19.8362 14.403 20.6181 14.4 21.5833V26.25H1.2V4.66667ZM14.4 30.9167H3C2.00715 30.9137 1.203 30.1319 1.2 29.1667V27.4167H14.436C14.5117 28.0567 14.7419 28.6704 15.108 29.2075L15.498 29.7792C15.564 29.8761 15.5995 29.9896 15.6 30.1058V30.3333H15C14.6687 30.3333 14.4 30.5945 14.4 30.9167ZM26.4 33.8333H15.6V31.5H26.4V33.8333ZM26.4 26.9383C26.4002 27.5154 26.2248 28.0795 25.896 28.56L25.5 29.1317C25.3031 29.4203 25.1987 29.7594 25.2 30.1058V30.3333H16.8V30.1058C16.8014 29.7594 16.697 29.4203 16.5 29.1317L16.104 28.56C15.7752 28.0795 15.5999 27.5154 15.6 26.9383V21.5833C15.6 21.2612 15.8687 21 16.2 21H16.8V23.9167C16.8 24.2388 17.0687 24.5 17.4 24.5C17.7313 24.5 18 24.2388 18 23.9167V14.6475C17.99 14.3294 18.2232 14.0529 18.546 14C18.726 13.9858 18.9029 14.0524 19.026 14.1808C19.1396 14.2853 19.2027 14.4314 19.2 14.5833V21.5833C19.2 21.9055 19.4687 22.1667 19.8 22.1667C20.1314 22.1667 20.4 21.9055 20.4 21.5833V18.6667C20.4 18.3445 20.6687 18.0833 21 18.0833C21.162 18.0819 21.3169 18.1477 21.426 18.2642C21.5396 18.3687 21.6027 18.5147 21.6 18.6667V21.5833C21.6 21.9055 21.8687 22.1667 22.2 22.1667C22.5314 22.1667 22.8 21.9055 22.8 21.5833V19.25C22.8 18.9279 23.0687 18.6667 23.4 18.6667C23.562 18.6653 23.7169 18.7311 23.826 18.8475C23.9396 18.952 24.0027 19.098 24 19.25V21.5833C24 21.9055 24.2687 22.1667 24.6 22.1667C24.9314 22.1667 25.2 21.9055 25.2 21.5833V20.4167C25.2 20.0945 25.4687 19.8333 25.8 19.8333C25.962 19.8319 26.117 19.8977 26.226 20.0142C26.3396 20.1187 26.4027 20.2647 26.4 20.4167V26.9383ZM34.8 19.8333H27.492C27.4052 19.5903 27.2637 19.3691 27.078 19.1858C26.567 18.6973 25.8103 18.5424 25.14 18.7892C25.0585 18.4974 24.8991 18.2318 24.678 18.0192C24.0996 17.4762 23.2267 17.3582 22.518 17.7275C22.45 17.6215 22.3694 17.5236 22.278 17.4358C21.7835 16.9627 21.0574 16.8004 20.4 17.0158V14.5833C20.4026 14.1216 20.2146 13.6782 19.878 13.3525C19.6862 13.1674 19.4547 13.026 19.2 12.9383V7H34.8V19.8333Z" fill="white"/>
<path d="M4.8001 18.0833H4.2001C3.86875 18.0833 3.6001 18.3445 3.6001 18.6666C3.6001 18.9888 3.86875 19.25 4.2001 19.25H4.8001C5.13145 19.25 5.4001 18.9888 5.4001 18.6666C5.4001 18.3445 5.13145 18.0833 4.8001 18.0833Z" fill="white"/>
<path d="M13.2001 18.0833H7.2001C6.86875 18.0833 6.6001 18.3445 6.6001 18.6666C6.6001 18.9888 6.86875 19.25 7.2001 19.25H13.2001C13.5314 19.25 13.8001 18.9888 13.8001 18.6666C13.8001 18.3445 13.5314 18.0833 13.2001 18.0833Z" fill="white"/>
<path d="M4.8001 20.4167H4.2001C3.86875 20.4167 3.6001 20.6779 3.6001 21C3.6001 21.3222 3.86875 21.5834 4.2001 21.5834H4.8001C5.13145 21.5834 5.4001 21.3222 5.4001 21C5.4001 20.6779 5.13145 20.4167 4.8001 20.4167Z" fill="white"/>
<path d="M12.0001 20.4167H7.2001C6.86875 20.4167 6.6001 20.6779 6.6001 21C6.6001 21.3222 6.86875 21.5834 7.2001 21.5834H12.0001C12.3314 21.5834 12.6001 21.3222 12.6001 21C12.6001 20.6779 12.3314 20.4167 12.0001 20.4167Z" fill="white"/>
<path d="M4.8001 22.75H4.2001C3.86875 22.75 3.6001 23.0112 3.6001 23.3333C3.6001 23.6555 3.86875 23.9167 4.2001 23.9167H4.8001C5.13145 23.9167 5.4001 23.6555 5.4001 23.3333C5.4001 23.0112 5.13145 22.75 4.8001 22.75Z" fill="white"/>
<path d="M12.0001 22.75H7.2001C6.86875 22.75 6.6001 23.0112 6.6001 23.3333C6.6001 23.6555 6.86875 23.9167 7.2001 23.9167H12.0001C12.3314 23.9167 12.6001 23.6555 12.6001 23.3333C12.6001 23.0112 12.3314 22.75 12.0001 22.75Z" fill="white"/>
<path d="M25.7996 16.9167C26.4624 16.9167 26.9996 16.3943 26.9996 15.75C26.9996 15.1057 26.4624 14.5833 25.7996 14.5833C25.1369 14.5833 24.5996 15.1057 24.5996 15.75C24.5996 16.3943 25.1369 16.9167 25.7996 16.9167Z" fill="white"/>
<path d="M28.7996 16.9167C29.4624 16.9167 29.9996 16.3943 29.9996 15.75C29.9996 15.1057 29.4624 14.5833 28.7996 14.5833C28.1369 14.5833 27.5996 15.1057 27.5996 15.75C27.5996 16.3943 28.1369 16.9167 28.7996 16.9167Z" fill="white"/>
<path d="M23.3998 9.91667H24.07L24.1534 10.5648V10.5817L24.6022 14.0723C24.6399 14.3651 24.8964 14.5844 25.1998 14.5833H29.3998C29.6582 14.5834 29.8875 14.4226 29.9692 14.1843L31.1692 10.6843C31.2739 10.3787 31.104 10.0484 30.7896 9.94656C30.7284 9.92673 30.6643 9.91667 30.5998 9.91667H25.2796L25.195 9.261C25.1575 8.96911 24.9024 8.75007 24.5998 8.75H23.3998C23.0685 8.75 22.7998 9.01119 22.7998 9.33333C22.7998 9.65548 23.0685 9.91667 23.3998 9.91667ZM29.7676 11.0833L28.9672 13.4167H25.7272L25.4272 11.0833H29.7676Z" fill="white"/>
<path d="M12 28.5833H9.6C9.26865 28.5833 9 28.8445 9 29.1666C9 29.4888 9.26865 29.75 9.6 29.75H12C12.3314 29.75 12.6 29.4888 12.6 29.1666C12.6 28.8445 12.3314 28.5833 12 28.5833Z" fill="white"/>
<path d="M16.3462 7.60083L13.9564 7.0175C13.9087 7.00583 13.8597 6.99993 13.8106 7H12.5998C12.2685 7 11.9998 7.26119 11.9998 7.58333C11.9998 8.2277 11.4626 8.75 10.7998 8.75C10.137 8.75 9.5998 8.2277 9.5998 7.58333C9.5998 7.26119 9.33115 7 8.9998 7H7.78481C7.73546 7 7.68625 7.00583 7.6384 7.0175L5.2534 7.60083C4.9867 7.66609 4.79973 7.89928 4.7998 8.16667V10.5C4.7998 10.8221 5.06845 11.0833 5.3998 11.0833C5.44893 11.0833 5.4979 11.0774 5.5456 11.0658L7.1998 10.6639V15.75C7.1998 16.0721 7.46845 16.3333 7.7998 16.3333H13.7998C14.1312 16.3333 14.3998 16.0721 14.3998 15.75V10.6639L16.054 11.0658C16.3755 11.1441 16.7013 10.9543 16.7818 10.6418C16.7937 10.5954 16.7998 10.5478 16.7998 10.5V8.16667C16.7999 7.89928 16.6129 7.66609 16.3462 7.60083ZM15.5998 9.75275L13.9456 9.35083C13.7664 9.30803 13.5768 9.34719 13.4308 9.457C13.2851 9.56747 13.1999 9.73707 13.1998 9.91667V15.1667H8.3998V9.91667C8.3998 9.59452 8.13115 9.33333 7.7998 9.33333C7.75068 9.33333 7.7017 9.33924 7.654 9.35083L5.9998 9.75275V8.62167L7.85981 8.16667H8.476C8.80608 9.41471 10.1143 10.1663 11.398 9.8455C12.2454 9.63368 12.9069 8.99041 13.1248 8.16667H13.7368L15.5998 8.62167V9.75275Z" fill="white"/>
</svg>
