<svg width="40" height="40" viewBox="0 0 40 40" fill="none" xmlns="http://www.w3.org/2000/svg">
<path d="M39.375 33.7502H36.875V11.8752C36.875 10.8414 36.0337 10.0002 35 10.0002H31.875V6.87516C31.875 6.79891 31.8569 6.72641 31.8312 6.65766C31.8237 6.63703 31.8138 6.61891 31.8044 6.59953C31.78 6.55078 31.7506 6.50703 31.7144 6.46641C31.7013 6.45141 31.69 6.43578 31.6756 6.42203C31.625 6.37453 31.5694 6.33266 31.5037 6.30391L20.2537 1.30391C20.0919 1.23203 19.9075 1.23203 19.7463 1.30391L8.49625 6.30391C8.27063 6.40453 8.125 6.62828 8.125 6.87516C8.125 7.12203 8.27063 7.34578 8.49625 7.44641L11.875 8.94828V10.0002H5C3.96625 10.0002 3.125 10.8414 3.125 11.8752V33.7502H0.625C0.28 33.7502 0 34.0295 0 34.3752V36.8752C0 37.9089 0.84125 38.7502 1.875 38.7502H38.125C39.1587 38.7502 40 37.9089 40 36.8752V34.3752C40 34.0302 39.72 33.7502 39.375 33.7502ZM30.625 16.2502H29.375C28.6856 16.2502 28.125 16.8108 28.125 17.5002V18.7502C28.125 19.4395 28.6856 20.0002 29.375 20.0002H30.625C31.3144 20.0002 31.875 19.4395 31.875 18.7502V16.8752V13.7502H33.125V31.2502H6.875V13.7502H11.875V14.792C11.875 15.0395 12.0206 15.2627 12.2463 15.3633L19.7463 18.6964C19.8269 18.7327 19.9137 18.7502 20 18.7502C20.0863 18.7502 20.1731 18.7327 20.2537 18.6964L27.7537 15.3633C27.9794 15.2627 28.125 15.0395 28.125 14.792V13.7502H30.625V16.2502ZM30.625 17.5002V18.7502H29.375V17.5002H30.625ZM28.125 12.5002V11.2502H30.625V12.5002H28.125ZM28.125 10.0002V8.94828L30.625 7.83703V10.0002H28.125ZM20 2.55953L29.7112 6.87516L20 11.1914L10.2887 6.87516L20 2.55953ZM19.7463 12.4464C19.8269 12.4827 19.9137 12.5002 20 12.5002C20.0863 12.5002 20.1731 12.4827 20.2537 12.4464L26.875 9.50391V14.3864L20.625 17.1633V15.6252C20.625 15.2795 20.345 15.0002 20 15.0002C19.655 15.0002 19.375 15.2795 19.375 15.6252V17.1633L13.125 14.3864V9.50391L19.7463 12.4464ZM4.375 11.8752C4.375 11.5302 4.65562 11.2502 5 11.2502H11.875V12.5002H6.25C5.905 12.5002 5.625 12.7795 5.625 13.1252V31.8752C5.625 32.2208 5.905 32.5002 6.25 32.5002H33.75C34.095 32.5002 34.375 32.2208 34.375 31.8752V13.1252C34.375 12.7795 34.095 12.5002 33.75 12.5002H31.875V11.2502H35C35.3444 11.2502 35.625 11.5302 35.625 11.8752V33.7502H24.375C24.2781 33.7502 24.1819 33.7727 24.0956 33.8158L22.9775 34.3752H17.0225L15.9044 33.8158C15.8181 33.7727 15.7219 33.7502 15.625 33.7502H4.375V11.8752ZM38.75 36.8752C38.75 37.2202 38.4694 37.5002 38.125 37.5002H1.875C1.53062 37.5002 1.25 37.2202 1.25 36.8752V35.0002H15.4775L16.5956 35.5595C16.6819 35.6027 16.7781 35.6252 16.875 35.6252H23.125C23.2219 35.6252 23.3181 35.6027 23.4044 35.5595L24.5225 35.0002H38.75V36.8752Z" fill="white"/>
<path d="M26.25 20H21.25C20.905 20 20.625 20.2794 20.625 20.625C20.625 20.9706 20.905 21.25 21.25 21.25H26.25C26.595 21.25 26.875 20.9706 26.875 20.625C26.875 20.2794 26.595 20 26.25 20Z" fill="white"/>
<path d="M26.25 22.5H13.75C13.405 22.5 13.125 22.7794 13.125 23.125C13.125 23.4706 13.405 23.75 13.75 23.75H26.25C26.595 23.75 26.875 23.4706 26.875 23.125C26.875 22.7794 26.595 22.5 26.25 22.5Z" fill="white"/>
<path d="M26.25 25H13.75C13.405 25 13.125 25.2794 13.125 25.625C13.125 25.9706 13.405 26.25 13.75 26.25H26.25C26.595 26.25 26.875 25.9706 26.875 25.625C26.875 25.2794 26.595 25 26.25 25Z" fill="white"/>
<path d="M18.75 27.5H13.75C13.405 27.5 13.125 27.7794 13.125 28.125C13.125 28.4706 13.405 28.75 13.75 28.75H18.75C19.095 28.75 19.375 28.4706 19.375 28.125C19.375 27.7794 19.095 27.5 18.75 27.5Z" fill="white"/>
<path d="M16.25 21.25C16.5952 21.25 16.875 20.9702 16.875 20.625C16.875 20.2798 16.5952 20 16.25 20C15.9048 20 15.625 20.2798 15.625 20.625C15.625 20.9702 15.9048 21.25 16.25 21.25Z" fill="white"/>
<path d="M21.25 28.75C21.5952 28.75 21.875 28.4702 21.875 28.125C21.875 27.7798 21.5952 27.5 21.25 27.5C20.9048 27.5 20.625 27.7798 20.625 28.125C20.625 28.4702 20.9048 28.75 21.25 28.75Z" fill="white"/>
<path d="M18.75 21.25C19.0952 21.25 19.375 20.9702 19.375 20.625C19.375 20.2798 19.0952 20 18.75 20C18.4048 20 18.125 20.2798 18.125 20.625C18.125 20.9702 18.4048 21.25 18.75 21.25Z" fill="white"/>
</svg>
