<svg width="39" height="25" viewBox="0 0 39 25" fill="none" xmlns="http://www.w3.org/2000/svg">
<path d="M37.5377 3.1734H34.283V2.6101C34.283 1.17089 33.11 0 31.6686 0H4.90501C3.46322 0 2.29061 1.17089 2.29061 2.6101V20.1855H0.43C0.19264 20.1855 0 20.3781 0 20.6155V21.5765C0 23.1181 1.25431 24.3724 2.79629 24.3724H33.7774C35.3189 24.3724 36.5732 23.1181 36.5732 21.5765V20.6155C36.5732 20.3781 36.381 20.1855 36.1432 20.1855H34.283V18.9501H37.5377C38.178 18.9501 38.6987 18.4294 38.6987 17.7891V4.3387C38.6987 3.69628 38.178 3.1734 37.5377 3.1734ZM37.8387 4.3387V15.7595H29.8665V14.9253H33.4011C34.047 14.9253 34.5729 14.3994 34.5729 13.7535V7.29065C34.5729 6.64479 34.047 6.1189 33.4011 6.1189H29.8665V4.3387C29.8665 4.17014 30.0015 4.0334 30.1675 4.0334H37.5377C37.7011 4.0334 37.8387 4.17315 37.8387 4.3387ZM33.4011 6.9789C33.5727 6.9789 33.7129 7.11865 33.7129 7.29065V13.7535C33.7129 13.9255 33.5731 14.0653 33.4011 14.0653H22.931L22.6563 13.8047C22.2061 13.3773 21.5 13.3773 21.0498 13.8047L20.7755 14.0649H17.9091C17.7375 14.0649 17.5973 13.9251 17.5973 13.7531V7.29022C17.5973 7.11865 17.7371 6.97847 17.9091 6.97847H20.7755L21.0498 7.23862C21.5 7.66647 22.2061 7.66604 22.6563 7.23862L22.9306 6.97847L33.4011 6.9789ZM13.2492 21.0455H23.3241V21.0971C23.3241 21.6122 22.9048 22.031 22.3901 22.031H14.1831C13.668 22.031 13.2492 21.6118 13.2492 21.0971V21.0455ZM35.7132 21.5765C35.7132 22.6438 34.8446 23.5124 33.7774 23.5124H2.79629C1.7286 23.5124 0.86 22.6438 0.86 21.5765V21.0455H12.3892V21.0971C12.3892 22.0865 13.1941 22.891 14.1831 22.891H22.3901C23.3795 22.891 24.1841 22.0861 24.1841 21.0971V21.0455H35.7132V21.5765ZM33.423 20.1842H3.15061V2.6101C3.15061 1.64518 3.93751 0.86 4.90501 0.86H31.6682C32.6357 0.86 33.4226 1.64518 33.4226 2.6101V3.1734H30.1675C29.5272 3.1734 29.0065 3.69628 29.0065 4.3387V6.1189H22.7595C22.6494 6.1189 22.5436 6.16104 22.4636 6.23672L22.0646 6.61512C21.9463 6.72778 21.7606 6.72778 21.6423 6.61512L21.2437 6.23672C21.1637 6.16061 21.0575 6.11847 20.9479 6.11847H17.9099C17.2641 6.11847 16.7382 6.64393 16.7382 7.29022V13.7531C16.7382 14.399 17.2636 14.9249 17.9099 14.9249H20.9479C21.058 14.9249 21.1642 14.8823 21.2437 14.8066L21.6423 14.4282C21.7606 14.3156 21.9463 14.3156 22.0646 14.4282L22.4636 14.8066C22.5436 14.8823 22.6498 14.9244 22.7595 14.9244H29.0065V17.7882C29.0065 18.4285 29.5272 18.9492 30.1675 18.9492H33.4226V20.1833L33.423 20.1842ZM37.5377 18.0901H30.1675C30.0015 18.0901 29.8665 17.9551 29.8665 17.7891V16.6195H37.8387V17.7891C37.8387 17.9551 37.7037 18.0901 37.5377 18.0901Z" fill="white"/>
<path d="M21.8529 8.24463C21.6151 8.24463 21.4229 8.43727 21.4229 8.67463V12.3696C21.4229 12.607 21.6151 12.7996 21.8529 12.7996C22.0906 12.7996 22.2829 12.607 22.2829 12.3696V8.67463C22.2829 8.43727 22.0906 8.24463 21.8529 8.24463Z" fill="white"/>
<path d="M23.7542 9.10463H27.5563C27.7941 9.10463 27.9863 8.91199 27.9863 8.67463C27.9863 8.43727 27.7941 8.24463 27.5563 8.24463H23.7542C23.5164 8.24463 23.3242 8.43727 23.3242 8.67463C23.3242 8.91199 23.5164 9.10463 23.7542 9.10463Z" fill="white"/>
<path d="M23.7542 10.6305H30.9915C31.2293 10.6305 31.4215 10.4379 31.4215 10.2005C31.4215 9.96315 31.2293 9.77051 30.9915 9.77051H23.7542C23.5164 9.77051 23.3242 9.96315 23.3242 10.2005C23.3242 10.4379 23.5164 10.6305 23.7542 10.6305Z" fill="white"/>
<path d="M20.4198 1.99885C20.4198 1.76149 20.2276 1.56885 19.9898 1.56885H16.5833C16.346 1.56885 16.1533 1.76149 16.1533 1.99885C16.1533 2.23621 16.346 2.42885 16.5833 2.42885H19.9898C20.2276 2.42885 20.4198 2.23621 20.4198 1.99885Z" fill="white"/>
<path d="M5.18488 12.6163H8.50018C8.73754 12.6163 8.93018 12.4237 8.93018 12.1863C8.93018 11.949 8.73754 11.7563 8.50018 11.7563H5.18488C4.94752 11.7563 4.75488 11.949 4.75488 12.1863C4.75488 12.4237 4.94752 12.6163 5.18488 12.6163Z" fill="white"/>
<path d="M5.18488 17.4157H8.50018C8.73754 17.4157 8.93018 17.223 8.93018 16.9857C8.93018 16.7483 8.73754 16.5557 8.50018 16.5557H5.18488C4.94752 16.5557 4.75488 16.7483 4.75488 16.9857C4.75488 17.223 4.94752 17.4157 5.18488 17.4157Z" fill="white"/>
<path d="M13.3171 11.7563H10.0023C9.76491 11.7563 9.57227 11.949 9.57227 12.1863C9.57227 12.4237 9.76491 12.6163 10.0023 12.6163H13.3171C13.5545 12.6163 13.7471 12.4237 13.7471 12.1863C13.7471 11.949 13.5545 11.7563 13.3171 11.7563Z" fill="white"/>
<path d="M13.317 13.3882H5.18488C4.94752 13.3882 4.75488 13.5808 4.75488 13.8182C4.75488 14.0555 4.94752 14.2482 5.18488 14.2482H13.317C13.5544 14.2482 13.747 14.0555 13.747 13.8182C13.747 13.5808 13.5544 13.3882 13.317 13.3882Z" fill="white"/>
<path d="M13.317 15.0205H5.18488C4.94752 15.0205 4.75488 15.2131 4.75488 15.4505C4.75488 15.6879 4.94752 15.8805 5.18488 15.8805H13.317C13.5544 15.8805 13.747 15.6879 13.747 15.4505C13.747 15.2131 13.5544 15.0205 13.317 15.0205Z" fill="white"/>
<path d="M13.317 18.0908H5.18488C4.94752 18.0908 4.75488 18.2835 4.75488 18.5208C4.75488 18.7582 4.94752 18.9508 5.18488 18.9508H13.317C13.5544 18.9508 13.747 18.7582 13.747 18.5208C13.747 18.2835 13.5544 18.0908 13.317 18.0908Z" fill="white"/>
</svg>
