<svg width="56" height="56" viewBox="0 0 56 56" fill="currentColor" xmlns="http://www.w3.org/2000/svg">
<path d="M28.1838 29.9152H22.5597C22.1977 29.9152 21.9034 30.2094 21.9034 30.5714V34.335C19.7575 32.1278 16.7584 30.7541 13.4444 30.7541C6.93547 30.753 1.64062 36.0478 1.64062 42.5567C1.64062 49.0645 6.93547 54.3594 13.4433 54.3594C16.7573 54.3594 19.7564 52.9856 21.9023 50.7784V53.7031C21.9023 54.0652 22.1966 54.3594 22.5586 54.3594H28.1827C28.5447 54.3594 28.8389 54.0652 28.8389 53.7031V30.5714C28.84 30.2083 28.5458 29.9152 28.1838 29.9152ZM9.87109 32.6922C9.47625 33.1712 9.10875 33.7345 8.77516 34.3777C8.54219 34.8272 8.33109 35.3084 8.14078 35.8127C7.41672 35.6005 6.73969 35.3434 6.12609 35.0459C7.18375 34.0167 8.45687 33.2062 9.87109 32.6922ZM5.215 36.0566C5.96969 36.4514 6.81734 36.7872 7.73172 37.0584C7.31063 38.5438 7.06453 40.1898 7.01422 41.9005H2.97391C3.11063 39.702 3.92656 37.6841 5.215 36.0566ZM2.97391 43.213H7.01422C7.06453 44.9236 7.31063 46.5686 7.73172 48.055C6.81734 48.3252 5.96969 48.6609 5.215 49.0569C3.92656 47.4283 3.11063 45.4114 2.97391 43.213ZM6.12609 50.0653C6.73969 49.7678 7.41672 49.5119 8.14078 49.2986C8.33 49.8028 8.54109 50.2841 8.77516 50.7336C9.10875 51.3767 9.47625 51.94 9.87109 52.4191C8.45687 51.9061 7.18375 51.0956 6.12609 50.0653ZM12.787 52.9572C11.4406 52.5875 10.2397 51.0989 9.42266 48.9792C10.4858 48.7583 11.6211 48.6237 12.787 48.5866V52.9572ZM12.787 47.273C11.4778 47.3123 10.2014 47.4688 9.00594 47.728C8.61984 46.3728 8.37812 44.835 8.32672 43.2119H12.787V47.273ZM12.787 41.9005H8.32672C8.37812 40.2773 8.61984 38.7395 9.00594 37.3844C10.2014 37.6436 11.4778 37.8011 12.787 37.8394V41.9005ZM12.787 36.5258C11.62 36.4886 10.4858 36.3552 9.42266 36.1331C10.2397 34.0134 11.4406 32.5259 12.787 32.1552V36.5258ZM23.9137 41.9005H19.8734C19.8231 40.1898 19.577 38.5448 19.1559 37.0584C20.0703 36.7872 20.918 36.4525 21.6727 36.0566C22.9611 37.6841 23.777 39.702 23.9137 41.9005ZM20.7616 35.047C20.148 35.3445 19.4709 35.6005 18.7469 35.8138C18.5577 35.3095 18.3466 34.8283 18.1125 34.3787C17.7789 33.7356 17.4114 33.1723 17.0166 32.6933C18.4308 33.2063 19.7039 34.0167 20.7616 35.047ZM14.0995 32.1552C15.4459 32.5248 16.6469 34.0134 17.4639 36.1331C16.4008 36.3552 15.2655 36.4886 14.0995 36.5258V32.1552ZM14.0995 37.8394C15.4088 37.8 16.6852 37.6436 17.8806 37.3844C18.2667 38.7395 18.5084 40.2773 18.5598 41.9005H14.0995V37.8394ZM14.0995 43.213H18.5598C18.5084 44.8361 18.2667 46.3739 17.8806 47.7291C16.6852 47.4698 15.4088 47.3123 14.0995 47.2741V43.213ZM14.0995 52.9572V48.5877C15.2666 48.6248 16.4008 48.7583 17.4639 48.9803C16.6469 51.0989 15.4459 52.5864 14.0995 52.9572ZM17.0166 52.4202C17.4114 51.9411 17.7789 51.3778 18.1125 50.7347C18.3455 50.2852 18.5566 49.8039 18.7469 49.2997C19.4709 49.5119 20.148 49.7689 20.7616 50.0664C19.7039 51.0956 18.4308 51.9061 17.0166 52.4202ZM21.6727 49.0558C20.918 48.6609 20.0703 48.3252 19.1559 48.0539C19.577 46.5686 19.8231 44.9225 19.8734 43.2119H23.9137C23.777 45.4114 22.9611 47.4283 21.6727 49.0558ZM27.5275 53.0469H23.2159V49.1684C24.4978 47.2806 25.247 45.0045 25.247 42.5556C25.247 40.1067 24.4978 37.8306 23.2159 35.9428V31.2266H27.5275V53.0469ZM36.6898 33.9719H31.0658C30.7038 33.9719 30.4095 34.2661 30.4095 34.6281V53.7031C30.4095 54.0652 30.7038 54.3594 31.0658 54.3594H36.6898C37.0519 54.3594 37.3461 54.0652 37.3461 53.7031V34.6281C37.3461 34.265 37.053 33.9719 36.6898 33.9719ZM36.0336 53.0469H31.722V35.2844H36.0336V53.0469ZM45.197 27.7189H39.573C39.2109 27.7189 38.9167 28.0131 38.9167 28.3752V53.7031C38.9167 54.0652 39.2109 54.3594 39.573 54.3594H45.197C45.5591 54.3594 45.8533 54.0652 45.8533 53.7031V28.3752C45.8533 28.0131 45.5591 27.7189 45.197 27.7189ZM44.5408 53.0469H40.2292V29.0314H44.5408V53.0469ZM53.7031 21.2855H48.0791C47.717 21.2855 47.4228 21.5797 47.4228 21.9417V53.7031C47.4228 54.0652 47.717 54.3594 48.0791 54.3594H53.7031C54.0652 54.3594 54.3594 54.0652 54.3594 53.7031V21.9417C54.3594 21.5786 54.0652 21.2855 53.7031 21.2855ZM53.0469 53.0469H48.7353V22.598H53.0469V53.0469ZM39.4494 18.6867L42.7481 20.23L51.2859 11.4472H48.9453C48.5833 11.4472 48.2891 11.153 48.2891 10.7909C48.2891 10.4289 48.5833 10.1347 48.9453 10.1347H52.8391C53.2011 10.1347 53.4953 10.4289 53.4953 10.7909V14.6847C53.4953 15.0467 53.2011 15.3409 52.8391 15.3409C52.477 15.3409 52.1828 15.0467 52.1828 14.6847V12.4075L43.3639 21.4791C43.1692 21.6792 42.8684 21.735 42.6158 21.6158L39.3619 20.0933L32.8978 28.175C32.7698 28.3358 32.5784 28.4211 32.3848 28.4211C32.2711 28.4211 32.1562 28.3916 32.0513 28.3303L25.0392 24.1905C24.7275 24.0067 24.6236 23.6042 24.8073 23.2914C24.9922 22.9797 25.3936 22.8758 25.7064 23.0595L32.2284 26.9095L38.6597 18.8694C38.8478 18.6353 39.1748 18.5588 39.4494 18.6867ZM30.1864 18.8191C34.9223 18.8191 38.7756 14.9658 38.7756 10.2298C38.7756 5.49391 34.9223 1.64062 30.1864 1.64062C25.4505 1.64062 21.5972 5.49391 21.5972 10.2298C21.5972 14.9658 25.4505 18.8191 30.1864 18.8191ZM30.1864 2.95312C34.1994 2.95312 37.4631 6.21797 37.4631 10.2298C37.4631 14.2417 34.1983 17.5066 30.1864 17.5066C26.1734 17.5066 22.9097 14.2417 22.9097 10.2298C22.9097 6.21797 26.1745 2.95312 30.1864 2.95312ZM31.4278 11.8945C31.4278 11.5325 31.0548 11.3302 30.2028 10.955C30.1077 10.9134 30.0125 10.8708 29.9162 10.8281C29.8244 10.7866 29.7325 10.7461 29.6406 10.7056C28.7459 10.3119 27.6314 9.82187 27.6314 8.56516C27.6314 7.49219 28.4375 6.58656 29.5291 6.32297V5.20406C29.5291 4.84203 29.8233 4.54781 30.1853 4.54781C30.5473 4.54781 30.8416 4.84203 30.8416 5.20406V6.32406C31.9331 6.58766 32.7392 7.49328 32.7392 8.56625C32.7392 8.92828 32.445 9.2225 32.083 9.2225C31.7209 9.2225 31.4267 8.92828 31.4267 8.56625C31.4267 8.01062 30.87 7.55781 30.1853 7.55781C29.5006 7.55781 28.9439 8.00953 28.9439 8.56625C28.9439 8.92828 29.3169 9.13063 30.1689 9.50469C30.2641 9.54625 30.3603 9.58891 30.4555 9.63266C30.5473 9.67422 30.6392 9.71469 30.73 9.75516C31.6247 10.1489 32.7392 10.6389 32.7392 11.8956C32.7392 12.9686 31.9331 13.8742 30.8416 14.1378V15.2578C30.8416 15.6198 30.5473 15.9141 30.1853 15.9141C29.8233 15.9141 29.5291 15.6198 29.5291 15.2578V14.1378C28.4375 13.8742 27.6314 12.9686 27.6314 11.8956C27.6314 11.5336 27.9256 11.2394 28.2877 11.2394C28.6497 11.2394 28.9439 11.5336 28.9439 11.8956C28.9439 12.4513 29.5006 12.9041 30.1853 12.9041C30.87 12.9041 31.4278 12.4502 31.4278 11.8945Z" fill="black"/>
</svg>
