<svg width="56" height="56" viewBox="0 0 56 56" fill="currentColor" xmlns="http://www.w3.org/2000/svg">
<path d="M27.9665 8.99303C18.1753 8.99303 10.2096 16.9587 10.2096 26.7497C10.2096 29.8821 11.0366 32.9618 12.601 35.6557C14.1185 38.2688 16.2929 40.4675 18.889 42.0144C19.6499 42.4679 20.0689 43.2052 20.0689 44.0906V48.1802C20.0689 49.6515 21.0398 50.9003 22.3745 51.3196V51.3954C22.3745 53.8138 24.3419 55.7814 26.7603 55.7814H29.1725C31.5909 55.7814 33.5585 53.8139 33.5585 51.3954V51.3196C34.8931 50.9002 35.8639 49.6514 35.8639 48.1802V44.0906C35.8639 43.2051 36.283 42.4678 37.044 42.0144C39.6402 40.4675 41.8145 38.2688 43.332 35.6557C44.8965 32.9618 45.7234 29.8821 45.7234 26.7497C45.7235 16.9586 37.7577 8.99303 27.9665 8.99303ZM29.1726 53.8125H26.7604C25.4528 53.8125 24.3851 52.7684 24.3454 51.4701H31.5879C31.548 52.7684 30.4803 53.8125 29.1726 53.8125ZM32.5741 49.5014H23.359C22.6305 49.5014 22.0378 48.9087 22.0378 48.1801V47.4799H33.8951V48.1801C33.8951 48.9087 33.3025 49.5014 32.5741 49.5014ZM36.0365 40.3231C34.6757 41.1337 33.8952 42.507 33.8952 44.0905V45.511H22.0378V44.0905C22.0378 42.507 21.2574 41.1337 19.8968 40.3231C15.136 37.4863 12.1785 32.2854 12.1785 26.7496C12.1785 18.0441 19.261 10.9617 27.9666 10.9617C36.6723 10.9617 43.7548 18.0441 43.7548 26.7496C43.7547 32.2854 40.7972 37.4863 36.0365 40.3231ZM5.10511 13.4179C5.3768 12.9472 5.97858 12.7857 6.44977 13.0576L10.2167 15.2324C10.6876 15.5042 10.8488 16.1062 10.577 16.5771C10.3947 16.8929 10.0638 17.0694 9.72358 17.0694C9.55667 17.0694 9.38747 17.0268 9.23237 16.9374L5.46539 14.7626C4.99453 14.4908 4.8332 13.8887 5.10511 13.4179ZM6.90258 27.6012H2.55273C2.00903 27.6012 1.56836 27.1605 1.56836 26.6168C1.56836 26.0731 2.00903 25.6325 2.55273 25.6325H6.90258C7.44628 25.6325 7.88695 26.0731 7.88695 26.6168C7.88695 27.1605 7.44628 27.6012 6.90258 27.6012ZM10.577 36.6567C10.8488 37.1276 10.6876 37.7296 10.2167 38.0014L6.44977 40.1763C6.29478 40.2657 6.12547 40.3083 5.95856 40.3083C5.6183 40.3083 5.28744 40.1319 5.10511 39.816C4.83331 39.3451 4.99453 38.7431 5.46539 38.4713L9.23237 36.2964C9.70345 36.0246 10.3053 36.186 10.577 36.6567ZM38.9039 23.9403H37.847C37.6305 23.1763 37.327 22.4439 36.9391 21.7504L37.6869 21.0027C38.0714 20.6183 38.0715 19.9951 37.687 19.6106L35.106 17.0294C34.9214 16.8447 34.671 16.741 34.41 16.741C34.1489 16.741 33.8985 16.8447 33.714 17.0294L32.966 17.7773C32.272 17.3892 31.5397 17.0857 30.7761 16.8693V15.8125C30.7761 15.2687 30.3354 14.8281 29.7917 14.8281H26.1415C25.5978 14.8281 25.1572 15.2687 25.1572 15.8125V16.8693C24.3932 17.0857 23.6607 17.3892 22.967 17.7772L22.2193 17.0295C21.8348 16.645 21.2117 16.645 20.8271 17.0295L18.2459 19.6107C17.8614 19.9952 17.8614 20.6184 18.2459 21.0028L18.9937 21.7505C18.6055 22.4445 18.302 23.1769 18.0857 23.9405H17.0292C16.4855 23.9405 16.0448 24.3813 16.0448 24.9249V28.5753C16.0448 29.119 16.4855 29.5597 17.0292 29.5597H18.0858C18.3022 30.3236 18.6057 31.0559 18.9937 31.7497L18.2459 32.4974C17.8614 32.882 17.8615 33.5052 18.2459 33.8896L20.8271 36.4709C21.0117 36.6555 21.2622 36.7592 21.5232 36.7592C21.7841 36.7592 22.0347 36.6555 22.2192 36.4708L22.9669 35.7231C23.6609 36.1111 24.3934 36.4147 25.157 36.6309V37.6877C25.157 38.2314 25.5977 38.672 26.1414 38.672H29.7916C30.3353 38.672 30.776 38.2314 30.776 37.6877V36.6308C31.5397 36.4144 32.2722 36.1109 32.966 35.723L33.7139 36.4708C34.0985 36.8551 34.7215 36.8552 35.106 36.4707L37.687 33.8895C38.0714 33.5052 38.0715 32.882 37.687 32.4974L36.9392 31.7496C37.3272 31.0556 37.6307 30.3232 37.8471 29.5597H38.9039C39.4477 29.5597 39.8883 29.119 39.8883 28.5753V24.9249C39.8883 24.3811 39.4477 23.9403 38.9039 23.9403ZM37.9196 27.5907H37.0724C36.6029 27.5907 36.1988 27.9222 36.107 28.3826C35.8949 29.4467 35.4808 30.4455 34.8765 31.3512C34.616 31.7416 34.6674 32.2617 34.9993 32.5935L35.5989 33.1932L34.4098 34.3822L33.8101 33.7827C33.4782 33.4507 32.958 33.3992 32.5677 33.66C31.6626 34.2641 30.6637 34.6782 29.5992 34.8904C29.1388 34.9822 28.8073 35.3863 28.8073 35.8557V36.703H27.1259V35.8557C27.1259 35.3862 26.7943 34.9821 26.3338 34.8904C25.2697 34.6784 24.271 34.2645 23.3653 33.66C22.975 33.3993 22.4547 33.4507 22.1228 33.7828L21.5233 34.3824L20.3342 33.1932L20.9337 32.5935C21.2656 32.2616 21.317 31.7415 21.0564 31.3511C20.4523 30.4461 20.0382 29.4474 19.826 28.3826C19.7342 27.9222 19.3301 27.5907 18.8607 27.5907H18.0137V25.9091H18.8607C19.3302 25.9091 19.7343 25.5775 19.826 25.117C20.038 24.053 20.452 23.0543 21.0564 22.1487C21.317 21.7583 21.2656 21.2381 20.9337 20.9062L20.3342 20.3066L21.5233 19.1174L22.1228 19.717C22.4548 20.049 22.9748 20.1003 23.3653 19.8397C24.2702 19.2357 25.269 18.8217 26.3341 18.6093C26.7945 18.5174 27.1259 18.1134 27.1259 17.6439V16.7967H28.8073V17.6439C28.8073 18.1134 29.1388 18.5175 29.5992 18.6093C30.6633 18.8214 31.6621 19.2355 32.5677 19.8397C32.9584 20.1004 33.4783 20.049 33.8101 19.717L34.4098 19.1173L35.5989 20.3065L34.9992 20.9062C34.6671 21.2382 34.6158 21.7584 34.8765 22.1489C35.4804 23.0533 35.8945 24.052 36.107 25.1173C36.1989 25.5776 36.603 25.9091 37.0724 25.9091H37.9196V27.5907ZM27.9662 20.0781C24.2874 20.0781 21.2946 23.0711 21.2946 26.75C21.2946 30.4288 24.2874 33.4217 27.9662 33.4217C31.6452 33.4217 34.6381 30.4288 34.6381 26.75C34.6381 23.0711 31.6452 20.0781 27.9662 20.0781ZM27.9662 31.453C25.3731 31.453 23.2633 29.3432 23.2633 26.75C23.2633 24.1567 25.3731 22.0468 27.9662 22.0468C30.5595 22.0468 32.6694 24.1567 32.6694 26.75C32.6694 29.3432 30.5595 31.453 27.9662 31.453ZM45.3562 16.5771C45.0844 16.1062 45.2456 15.5042 45.7165 15.2324L49.4832 13.0576C49.9542 12.7857 50.5562 12.9473 50.8279 13.4179C51.0997 13.8888 50.9385 14.4908 50.4676 14.7626L46.7009 16.9374C46.5459 17.0268 46.3766 17.0695 46.2097 17.0695C45.8693 17.0694 45.5385 16.8929 45.3562 16.5771ZM54.4312 26.6348C54.4312 27.1785 53.9905 27.6192 53.4468 27.6192H49.0969C48.5532 27.6192 48.1126 27.1785 48.1126 26.6348C48.1126 26.0911 48.5532 25.6504 49.0969 25.6504H53.4468C53.9905 25.6504 54.4312 26.0911 54.4312 26.6348ZM50.8279 39.816C50.6456 40.1319 50.3147 40.3083 49.9744 40.3083C49.8075 40.3083 49.6382 40.2657 49.4832 40.1763L45.7165 38.0014C45.2456 37.7296 45.0844 37.1276 45.3562 36.6567C45.6279 36.1858 46.2299 36.0245 46.7009 36.2964L50.4676 38.4713C50.9385 38.7432 51.0997 39.3452 50.8279 39.816ZM26.9821 5.55286V1.20312C26.9821 0.659422 27.4227 0.21875 27.9665 0.21875C28.5102 0.21875 28.9508 0.659422 28.9508 1.20312V5.55286C28.9508 6.09656 28.5102 6.53723 27.9665 6.53723C27.4227 6.53723 26.9821 6.09645 26.9821 5.55286ZM14.4071 5.10016C14.1353 4.6293 14.2965 4.0273 14.7674 3.7555C15.238 3.48359 15.8402 3.64503 16.1121 4.11567L18.2872 7.88255C18.559 8.35341 18.3978 8.95541 17.9269 9.2272C17.7719 9.31667 17.6026 9.35933 17.4357 9.35933C17.0956 9.35933 16.7646 9.1828 16.5823 8.86703L14.4071 5.10016ZM37.6462 7.88276L39.8209 4.11589C40.0927 3.64514 40.6943 3.4837 41.1656 3.7555C41.6365 4.0273 41.7977 4.6293 41.5259 5.10016L39.3512 8.86703C39.1689 9.1828 38.838 9.35944 38.4977 9.35944C38.3308 9.35944 38.1616 9.31689 38.0065 9.22742C37.5358 8.95551 37.3745 8.35351 37.6462 7.88276Z" fill="black"/>
</svg>
