<svg width="32" height="23" viewBox="0 0 32 23" fill="none" xmlns="http://www.w3.org/2000/svg">
<path d="M31.4862 1.125V7.875C31.4862 8.17337 31.3676 8.45952 31.1567 8.67049C30.9457 8.88147 30.6595 9 30.3612 9C30.0628 9 29.7767 8.88147 29.5657 8.67049C29.3547 8.45952 29.2362 8.17337 29.2362 7.875V3.84075L19.9066 13.1715C19.6954 13.3821 19.4094 13.5002 19.1112 13.5H10.5769L1.90655 22.1704C1.69437 22.3753 1.4102 22.4887 1.11522 22.4861C0.820253 22.4836 0.538089 22.3653 0.329505 22.1567C0.120921 21.9481 0.00260575 21.6659 4.2528e-05 21.3709C-0.00252069 21.076 0.110873 20.7918 0.315801 20.5796L9.3158 11.5796C9.52673 11.3686 9.81283 11.2501 10.1112 11.25H18.6443L27.6443 2.25H23.6112C23.3128 2.25 23.0267 2.13147 22.8157 1.92049C22.6047 1.70952 22.4862 1.42337 22.4862 1.125C22.4862 0.826631 22.6047 0.540483 22.8157 0.329505C23.0267 0.118527 23.3128 0 23.6112 0H30.3612C30.6595 0 30.9457 0.118527 31.1567 0.329505C31.3676 0.540483 31.4862 0.826631 31.4862 1.125Z" fill="white"/>
</svg>
