<svg width="41" height="40" viewBox="0 0 41 40" fill="none" xmlns="http://www.w3.org/2000/svg">
<path d="M38.9498 0H2.04981C0.88456 0.0362771 -0.031623 0.98434 -0.00019143 2.12133V31.212C-0.031623 32.349 0.88456 33.2971 2.04981 33.3333H13.9275L12.5608 36H10.2498C9.11763 36 8.19981 36.8954 8.19981 38C8.19981 39.1046 9.11763 40 10.2498 40H30.7498C31.882 40 32.7998 39.1046 32.7998 38C32.7998 36.8954 31.882 36 30.7498 36H28.4388L27.0721 33.3333H38.9498C40.1151 33.2971 41.0312 32.349 40.9998 31.212V2.12133C41.0312 0.98434 40.1151 0.0362771 38.9498 0ZM31.4331 38C31.4331 38.3682 31.1272 38.6667 30.7498 38.6667H10.2498C9.87242 38.6667 9.56648 38.3682 9.56648 38C9.56648 37.6318 9.87242 37.3333 10.2498 37.3333H30.7498C31.1272 37.3333 31.4331 37.6318 31.4331 38ZM26.9108 36H14.0888L15.4554 33.3333H25.5442L26.9108 36ZM38.9498 32H2.04981C1.64212 31.9589 1.34046 31.6111 1.36648 31.212V29.3333H5.46648C5.84387 29.3333 6.14981 29.0349 6.14981 28.6667C6.14981 28.2985 5.84387 28 5.46648 28H1.36648V2.12133C1.34046 1.72228 1.64212 1.37441 2.04981 1.33333H38.9498C39.3575 1.37441 39.6592 1.72228 39.6331 2.12133V28H8.19981C7.82241 28 7.51648 28.2985 7.51648 28.6667C7.51648 29.0349 7.82241 29.3333 8.19981 29.3333H39.6331V31.212C39.6592 31.6111 39.3575 31.9589 38.9498 32Z" fill="white"/>
<path d="M10.2498 23.3333H30.7498C31.5046 23.3333 32.1165 22.7363 32.1165 21.9999H36.2165C36.9713 21.9999 37.5832 21.403 37.5832 20.6666V7.33325C37.5832 6.59687 36.9713 5.99992 36.2165 5.99992H32.1165V4.66659C32.1165 3.93021 31.5046 3.33325 30.7498 3.33325H10.2498C9.49505 3.33325 8.88317 3.93021 8.88317 4.66659V5.99992H4.78317C4.02838 5.99992 3.4165 6.59687 3.4165 7.33325V20.6666C3.4165 21.403 4.02838 21.9999 4.78317 21.9999H8.88317C8.88317 22.7363 9.49505 23.3333 10.2498 23.3333ZM10.2498 21.9999V20.2346L17.7617 11.0726L24.7461 19.7453C24.8954 19.937 25.1391 20.0354 25.3836 20.0024C25.6282 19.9695 25.8355 19.8105 25.926 19.5864C26.0165 19.3623 25.9761 19.1081 25.8203 18.9213L24.0901 16.7733L26.6498 14.2759L30.7498 18.2759V21.3333V21.3393V21.9999H10.2498ZM36.2165 7.33325V20.6666H32.1165V7.33325H36.2165ZM10.2498 4.66659H30.7498V6.66659V16.3906L27.133 12.8619C26.8661 12.6017 26.4336 12.6017 26.1667 12.8619L23.24 15.7173L18.3036 9.58792C18.1741 9.42716 17.9761 9.33329 17.7665 9.33325C17.5589 9.33318 17.3626 9.42516 17.2328 9.58325L10.2498 18.0986V4.66659ZM4.78317 20.6666V7.33325H8.88317V20.6666H4.78317Z" fill="white"/>
<path d="M24.6005 11.3333C26.1101 11.3333 27.3339 10.1394 27.3339 8.66667C27.3339 7.19391 26.1101 6 24.6005 6C23.0909 6 21.8672 7.19391 21.8672 8.66667C21.8672 10.1394 23.0909 11.3333 24.6005 11.3333ZM24.6005 7.33333C25.3553 7.33333 25.9672 7.93029 25.9672 8.66667C25.9672 9.40305 25.3553 10 24.6005 10C23.8457 10 23.2339 9.40305 23.2339 8.66667C23.2339 7.93029 23.8457 7.33333 24.6005 7.33333Z" fill="white"/>
<path d="M20.5002 26.0001C20.8776 26.0001 21.1836 25.7016 21.1836 25.3334C21.1836 24.9652 20.8776 24.6667 20.5002 24.6667C20.1228 24.6667 19.8169 24.9652 19.8169 25.3334C19.8169 25.7016 20.1228 26.0001 20.5002 26.0001Z" fill="white"/>
<path d="M23.2331 26.0001C23.6105 26.0001 23.9165 25.7016 23.9165 25.3334C23.9165 24.9652 23.6105 24.6667 23.2331 24.6667C22.8557 24.6667 22.5498 24.9652 22.5498 25.3334C22.5498 25.7016 22.8557 26.0001 23.2331 26.0001Z" fill="white"/>
<path d="M25.9665 26.0001C26.3439 26.0001 26.6499 25.7016 26.6499 25.3334C26.6499 24.9652 26.3439 24.6667 25.9665 24.6667C25.5891 24.6667 25.2832 24.9652 25.2832 25.3334C25.2832 25.7016 25.5891 26.0001 25.9665 26.0001Z" fill="white"/>
<path d="M17.7668 26.0001C18.1442 26.0001 18.4502 25.7016 18.4502 25.3334C18.4502 24.9652 18.1442 24.6667 17.7668 24.6667C17.3894 24.6667 17.0835 24.9652 17.0835 25.3334C17.0835 25.7016 17.3894 26.0001 17.7668 26.0001Z" fill="white"/>
<path d="M15.0334 26.0001C15.4108 26.0001 15.7168 25.7016 15.7168 25.3334C15.7168 24.9652 15.4108 24.6667 15.0334 24.6667C14.656 24.6667 14.3501 24.9652 14.3501 25.3334C14.3501 25.7016 14.656 26.0001 15.0334 26.0001Z" fill="white"/>
</svg>
