<svg width="15" height="18" viewBox="0 0 15 18" fill="none" xmlns="http://www.w3.org/2000/svg">
<path d="M13.9736 9.24778C14.019 9.2188 14.0565 9.17882 14.0824 9.13155C14.1083 9.08428 14.1219 9.03124 14.1219 8.97732C14.1219 8.92341 14.1083 8.87037 14.0824 8.8231C14.0565 8.77582 14.019 8.73585 13.9736 8.70687L0.370647 0.0343148C0.328172 0.00747582 0.277847 -0.00415531 0.227902 0.00132384C0.177958 0.00680299 0.131352 0.0290681 0.095706 0.0644773C0.0600603 0.0998866 0.0374853 0.146344 0.0316738 0.19625C0.0258622 0.246157 0.0371582 0.296558 0.0637138 0.339211L5.30673 8.68479C5.36178 8.77243 5.39099 8.87382 5.39099 8.97731C5.39099 9.08081 5.36178 9.1822 5.30673 9.26983L0.050701 17.6361C-0.101012 17.8776 0.119476 18.0805 0.295505 17.9682L13.9736 9.24778Z" fill="white"/>
</svg>
